<svg xmlns="http://www.w3.org/2000/svg" viewBox="0 0 30 21">
  <path d="M2.47,14.49h11.9a.44.44,0,0,0,.43-.44.43.43,0,0,0-.43-.43H2.47a.44.44,0,0,0-.44.43A.44.44,0,0,0,2.47,14.49Z" fill="#2757a1"/>
  <path d="M13.18,18.46c.11.36.23.74.61.74.21,0,.36,0,2-1.9A3.7,3.7,0,0,0,18,18.67h.14A2.59,2.59,0,0,0,19.44,18c.65-.53.77-.53,1-.27a2.11,2.11,0,0,0,2.63.34.42.42,0,0,0,.14-.59h0a.45.45,0,0,0-.61-.13,1.23,1.23,0,0,1-1.53-.21,1.23,1.23,0,0,0-1.29-.38,3,3,0,0,0-.94.58,1.89,1.89,0,0,1-.8.49c-.49.05-1.42-.83-1.9-1.44a.43.43,0,0,0-.62-.07.1.1,0,0,0-.06.05C15,16.94,14.37,17.61,14,18c-.15-.53-.34-1.38-.5-2.14a.43.43,0,0,0-.53-.33.44.44,0,0,0-.32.27l-1.08,2.89a.43.43,0,0,0,.25.55h0a.4.4,0,0,0,.15,0,.45.45,0,0,0,.42-.28l.56-1.5C13,17.91,13.11,18.23,13.18,18.46Z" fill="#2757a1"/>
  <path d="M2.47,12.54h11.9a.43.43,0,1,0,0-.86H2.47a.43.43,0,1,0,0,.86Z" fill="#2757a1"/>
  <path d="M3.14,10.62H18.37a1.12,1.12,0,0,0,1.11-1.09h0V8.27a1.1,1.1,0,0,0-1.11-1.09H3.14A1.09,1.09,0,0,0,2,8.27H2V9.53a1.1,1.1,0,0,0,1.1,1.09ZM2.91,8.27A.23.23,0,0,1,3.14,8H18.37a.24.24,0,0,1,.23.23V9.53a.24.24,0,0,1-.23.22H3.14a.22.22,0,0,1-.23-.22V8.27Z" fill="#2757a1"/>
  <path d="M27,18.22a.44.44,0,0,0-.44.44v1a.46.46,0,0,1-.47.46H13A.43.43,0,0,0,13,21H26.12a1.33,1.33,0,0,0,1.35-1.32v-1A.44.44,0,0,0,27,18.22Z" fill="#2757a1"/>
  <path d="M29.69,3.2a2.2,2.2,0,0,0-1.16-.89l.15-.56a1.26,1.26,0,0,0-.16-1,1.5,1.5,0,0,0-.84-.6L27.3.05A1.37,1.37,0,0,0,25.62,1L24.37,5.54h-23A1.33,1.33,0,0,0,0,6.86V19.68A1.33,1.33,0,0,0,1.35,21H11a.43.43,0,1,0,0-.86H1.35a.46.46,0,0,1-.47-.46V6.86a.47.47,0,0,1,.47-.46H24.14l-.31,1.16h0l-.9,3.33h0l-.4,1.48a1.32,1.32,0,0,0,.71,1.5L22.93,15a.42.42,0,0,0,.3.53h0l.11,0a.44.44,0,0,0,.43-.33l.31-1.14h.19a1.37,1.37,0,0,0,.66-.16,1.25,1.25,0,0,0,.65-.79l.4-1.48h0l.61-2.24V16.7a.44.44,0,0,0,.88,0V6.86a1.14,1.14,0,0,0-.07-.41l.9-3.3a1.24,1.24,0,0,1,.64.51,1,1,0,0,1,.14.84l-.73,2.69a.41.41,0,0,0,.3.52h.12a.44.44,0,0,0,.43-.32l.73-2.68a1.9,1.9,0,0,0-.25-1.52Zm-5,9.75a.4.4,0,0,1-.21.25.53.53,0,0,1-.39,0l-.38-.1a.48.48,0,0,1-.38-.55h0l.29-1.05,1.36.35Zm.51-1.89-1.35-.36.68-2.5,1.35.36Zm.91-3.34-1.36-.36,1.68-6.18a.45.45,0,0,1,.46-.31l.52.12a.52.52,0,0,1,.32.22.37.37,0,0,1,.06.32Z" fill="#2757a1"/>
</svg>
