<svg xmlns="http://www.w3.org/2000/svg" xmlns:xlink="http://www.w3.org/1999/xlink" viewBox="0 0 96.27 20.71">
  <defs>
    <clipPath id="a">
      <rect width="17.78" height="20.71" fill="none"/>
    </clipPath>
  </defs>
  <rect width="96.27" height="20.71" fill="none"/>
  <g>
    <path d="M71.38,15.6V13.86l.36,0a2.47,2.47,0,0,0,.81-.25,1.78,1.78,0,0,0,.9-1,2.63,2.63,0,0,0,.09-1.47,1.77,1.77,0,0,0-1.4-1.41,2.76,2.76,0,0,0-1-.06c-.22,0-.45.07-.67.1l-.12,0a.1.1,0,0,0-.09.11h0v8.6h-2c0-.09,0-9.61,0-10l.12-.05a9.07,9.07,0,0,1,3.54-.56,4.76,4.76,0,0,1,1.7.41,3.28,3.28,0,0,1,1.92,2.42,4.79,4.79,0,0,1-.19,2.65,3.35,3.35,0,0,1-2.25,2.1,5.31,5.31,0,0,1-1.63.23h-.09" fill="#2757a1"/>
    <path d="M37.31,15.44h-2v-4.5a3,3,0,0,0,0-.43,1.05,1.05,0,0,0-.9-.88,3.66,3.66,0,0,0-.74,0,4.32,4.32,0,0,0-.93.16c-.17.05-.14,0-.14.2v5.47h-2c0-.1,0-10.77,0-10.88h2V8.11l.1,0a5.77,5.77,0,0,1,1.94-.28,3.84,3.84,0,0,1,.95.15,2.3,2.3,0,0,1,1.64,1.69,4.11,4.11,0,0,1,.13,1.11v4.69" fill="#2757a1"/>
    <path d="M59.54,11.74A4.08,4.08,0,0,1,59.88,10,3.51,3.51,0,0,1,62,8.06a4.19,4.19,0,0,1,3,0,3.57,3.57,0,0,1,2.31,2.7,4.18,4.18,0,0,1-.17,2.45,3.59,3.59,0,0,1-2.55,2.25,4.2,4.2,0,0,1-2.62-.13,3.61,3.61,0,0,1-2.29-2.68,4.05,4.05,0,0,1-.1-.92m5.8,0a2.85,2.85,0,0,0-.16-1,1.78,1.78,0,0,0-2-1.2,1.71,1.71,0,0,0-1.46,1.15,2.73,2.73,0,0,0,0,2,1.69,1.69,0,0,0,1.06,1.09,1.6,1.6,0,0,0,.72.11,1.7,1.7,0,0,0,1.57-1,2.46,2.46,0,0,0,.26-1.16" fill="#2757a1"/>
    <path d="M43.14,11.74a4.27,4.27,0,0,1,.41-1.89,3.54,3.54,0,0,1,2-1.79,4.2,4.2,0,0,1,3.08,0,3.56,3.56,0,0,1,2.23,2.69,4.08,4.08,0,0,1-.17,2.42,3.62,3.62,0,0,1-2.65,2.29,4.19,4.19,0,0,1-2.5-.15,3.61,3.61,0,0,1-2.31-2.68,4.08,4.08,0,0,1-.1-.93m5.79-.17a2.47,2.47,0,0,0-.15-.81,1.79,1.79,0,0,0-2.05-1.2,1.68,1.68,0,0,0-1.38,1.13,2.73,2.73,0,0,0-.06,1.87,1.76,1.76,0,0,0,1.83,1.31,1.72,1.72,0,0,0,1.61-1.1,2.74,2.74,0,0,0,.2-1.2" fill="#2757a1"/>
    <path d="M76.53,11.76A4.12,4.12,0,0,1,76.9,10a3.49,3.49,0,0,1,2-1.89,4.18,4.18,0,0,1,3.09,0,3.54,3.54,0,0,1,2.23,2.66,4.08,4.08,0,0,1-.2,2.51,3.57,3.57,0,0,1-2.62,2.21A4.16,4.16,0,0,1,79,15.35a3.59,3.59,0,0,1-2.32-2.7,3.8,3.8,0,0,1-.1-.89m2,0a2.64,2.64,0,0,0,.1.79,1.81,1.81,0,0,0,2.16,1.34,1.68,1.68,0,0,0,1.33-1.12,2.74,2.74,0,0,0,.07-1.81,1.77,1.77,0,0,0-1.87-1.37,1.74,1.74,0,0,0-1.57,1.05,2.67,2.67,0,0,0-.22,1.12" fill="#2757a1"/>
    <path d="M58.68,15.44h-2V10.92a1.7,1.7,0,0,0-.07-.55,1,1,0,0,0-.86-.73,3.22,3.22,0,0,0-.82,0,5.31,5.31,0,0,0-.87.16c-.13,0-.13,0-.13.18v5.46c-.1,0-1.82,0-2,0V8.6c0-.17,0-.14.13-.2A9.76,9.76,0,0,1,53.33,8a10,10,0,0,1,2.38-.24A4.31,4.31,0,0,1,56.94,8a2.24,2.24,0,0,1,1.64,1.76,4.26,4.26,0,0,1,.11,1v4.57a.62.62,0,0,1,0,.13" fill="#2757a1"/>
    <path d="M91.56,5.2h2V8h2.6c0,.1,0,1.51,0,1.65h-2.6a.45.45,0,0,0,0,.11v2.89a1.24,1.24,0,0,0,0,.33,1,1,0,0,0,.84.85,2.75,2.75,0,0,0,.76,0,5.06,5.06,0,0,0,1-.17h0V15.5l-.23,0a9.63,9.63,0,0,1-1.52.1,4.92,4.92,0,0,1-1.21-.18,2.24,2.24,0,0,1-1.68-1.86,4.4,4.4,0,0,1-.08-.89V5.2" fill="#2757a1"/>
    <path d="M90,10,89.92,10a3.91,3.91,0,0,0-1.26-.54,2.8,2.8,0,0,0-1-.07,1,1,0,0,0-.39.14.56.56,0,0,0-.19.78.5.5,0,0,0,.15.17,1.22,1.22,0,0,0,.36.18c.25.08.49.13.74.19a4.4,4.4,0,0,1,.95.31,2.46,2.46,0,0,1,.45.25,1.74,1.74,0,0,1,.76,1.12,2.85,2.85,0,0,1,0,1.3,2,2,0,0,1-1.12,1.39,3.37,3.37,0,0,1-1,.3,5.59,5.59,0,0,1-2.5-.21A3.4,3.4,0,0,1,85.2,15a.11.11,0,0,1-.07-.13V13.19a.28.28,0,0,1,0-.09l.1.06a4.34,4.34,0,0,0,1.89.73,2.28,2.28,0,0,0,.9,0l.15-.06a.55.55,0,0,0,.37-.48.6.6,0,0,0-.29-.6,2.13,2.13,0,0,0-.55-.2l-.84-.19a3.54,3.54,0,0,1-.82-.31,1.83,1.83,0,0,1-1-1.35,3.09,3.09,0,0,1,0-1.25,2.07,2.07,0,0,1,1-1.33,3.17,3.17,0,0,1,1.08-.34A4.89,4.89,0,0,1,89,7.84a4.1,4.1,0,0,1,.95.38.13.13,0,0,1,.09.13V9.94S90,10,90,10" fill="#2757a1"/>
    <path d="M29.43,10.23l-.1-.07A2.82,2.82,0,0,0,28,9.6a2.74,2.74,0,0,0-1.24.08,1.86,1.86,0,0,0-1.34,1.54,2.37,2.37,0,0,0,0,1.09A1.93,1.93,0,0,0,27,13.78a2.93,2.93,0,0,0,2.3-.45l.19-.13s0,.06,0,.09V15a.13.13,0,0,1-.09.14,3.8,3.8,0,0,1-1.39.46,4.88,4.88,0,0,1-1.66-.05A3.51,3.51,0,0,1,24,14a3.76,3.76,0,0,1-.54-1.44,4.58,4.58,0,0,1,.08-1.95,3.55,3.55,0,0,1,2.76-2.66A4.54,4.54,0,0,1,28.64,8a3.5,3.5,0,0,1,.71.32.14.14,0,0,1,.09.14v1.69s0,.06,0,.1" fill="#2757a1"/>
    <path d="M43.24,7.94V9.79l-.38-.09a4.17,4.17,0,0,0-1.22-.09,1.77,1.77,0,0,0-.4.08,1,1,0,0,0-.69.79,2.32,2.32,0,0,0,0,.46v4.5h-2s0-.09,0-.13V10.7a4.55,4.55,0,0,1,.12-1A2.23,2.23,0,0,1,40.15,8a4,4,0,0,1,1-.19,9.22,9.22,0,0,1,2,.1l.08,0" fill="#2757a1"/>
    <g clip-path="url(#a)">
      <path d="M17.32,4.49l-.13.08L11.65,7.79l-.1.06a.33.33,0,0,0-.15.27c0,.19,0,.39,0,.58a.34.34,0,0,0,.18.27l.44.26a.33.33,0,0,0,.36,0l1.13-.66,4.13-2.41.12-.07c0,.06,0,.1,0,.14v8.9a.81.81,0,0,1-.14.46.88.88,0,0,1-.25.22l-3.45,2L9.27,20.6a.7.7,0,0,1-.56.09.68.68,0,0,1-.21-.1L4.12,18,.38,15.81a.77.77,0,0,1-.31-.31A.67.67,0,0,1,0,15.19V6.09l.14.08L4.62,8.78l3.3,1.91a.3.3,0,0,1,.17.3v6.62a.44.44,0,0,0,.28.48l.33.18a.35.35,0,0,0,.39,0L9.52,18a.33.33,0,0,0,.18-.3V10.1a.34.34,0,0,0-.2-.34L8.38,9.1.57,4.56.46,4.49l.11-.06L6.88,1,8.5.11a.73.73,0,0,1,.78,0L17.2,4.43l.12.06" fill="#2757a1"/>
    </g>
  </g>
</svg>
