<svg xmlns="http://www.w3.org/2000/svg" viewBox="0 0 75 20">
  <path d="M11.38,9.12a.26.26,0,0,1-.27,0l-.45-.26a.28.28,0,0,1-.09-.1h0a.24.24,0,0,1-.05-.14V8.09a.29.29,0,0,1,.13-.24L16,4.75,8.49.67a.77.77,0,0,0-.3-.06.62.62,0,0,0-.3.06L.41,4.75,8.79,9.62a.32.32,0,0,1,.14.24V17a.27.27,0,0,1-.15.23l-.45.25a.2.2,0,0,1-.13,0h0a.23.23,0,0,1-.14,0l-.46-.24A.32.32,0,0,1,7.45,17V10.63a.15.15,0,0,0-.07-.12L0,6.21v8.41a.66.66,0,0,0,.3.52l7.6,4.48a.68.68,0,0,0,.6,0l7.6-4.48a.66.66,0,0,0,.3-.52V6.21Z" fill="#2757a1"/>
  <g>
    <path d="M27.07,8.28a3.47,3.47,0,0,0-2-.51A3.44,3.44,0,0,0,21.5,11a1.82,1.82,0,0,0,0,.33A3.39,3.39,0,0,0,24.67,15a3.53,3.53,0,0,0,.46,0,3.89,3.89,0,0,0,2-.5V12.69a2.74,2.74,0,0,1-1.74.62,1.89,1.89,0,0,1-2-1.73v-.24A1.82,1.82,0,0,1,25.05,9.4h.27a2.67,2.67,0,0,1,1.75.63V8.28Z" fill="#2757a1"/>
    <path d="M38.38,13.21h0a1,1,0,0,1-1-1,.71.71,0,0,1,0-.14V4.8H35.5v7.38c0,2,1.13,2.67,2.88,2.68Z" fill="#2757a1"/>
    <path d="M31.2,7.77a3.45,3.45,0,0,0-3.59,3.31v.27a3.45,3.45,0,0,0,3.31,3.59h.28a3.46,3.46,0,0,0,3.6-3.32v-.26a3.47,3.47,0,0,0-3.34-3.59Zm0,5.57a1.76,1.76,0,0,1-1.74-1.78c0-.07,0-.14,0-.2a1.74,1.74,0,0,1,3.45-.5,2.09,2.09,0,0,1,0,.5,1.77,1.77,0,0,1-1.52,2Z" fill="#2757a1"/>
    <path d="M42.23,14.31a4.45,4.45,0,0,0,2.23.56c1.6,0,2.72-.68,2.72-2.17,0-1.23-.6-1.91-2.37-2.24-.65-.15-.89-.34-.89-.69s.26-.58.88-.58a3.37,3.37,0,0,1,2,.66V8.2a3.85,3.85,0,0,0-2-.51c-1.47,0-2.61.7-2.61,2.2,0,1.25.64,1.87,2.2,2.15.75.15,1,.32,1,.73s-.39.6-1,.6a4,4,0,0,1-2.18-.76Z" fill="#2757a1"/>
    <path d="M39.23,14.79h1.85V7.91H39.23Z" fill="#2757a1"/>
    <path d="M40.16,5.17a.93.93,0,1,0,.92.92.93.93,0,0,0-.92-.92h0" fill="#2757a1"/>
    <path d="M71.06,7.77a3.46,3.46,0,0,0-3.59,3.31v.27a3.6,3.6,0,1,0,7.19,0,3.45,3.45,0,0,0-3.33-3.58Zm0,5.57a1.75,1.75,0,0,1-1.73-1.79,1.21,1.21,0,0,1,0-.19,1.74,1.74,0,0,1,3.45-.5,2.09,2.09,0,0,1,0,.5,1.77,1.77,0,0,1-1.53,2Z" fill="#2757a1"/>
    <path d="M47.8,14.31a4.45,4.45,0,0,0,2.23.56c1.6,0,2.72-.68,2.72-2.17,0-1.23-.6-1.91-2.37-2.24-.65-.15-.89-.34-.89-.69s.26-.58.88-.58a3.34,3.34,0,0,1,2,.66V8.2a3.84,3.84,0,0,0-2-.51c-1.48,0-2.62.7-2.62,2.2,0,1.25.65,1.87,2.2,2.15.75.15,1,.32,1,.73s-.39.6-1,.6a4,4,0,0,1-2.18-.76Z" fill="#2757a1"/>
    <path d="M53.55,14.79H55.4V7.91H53.55Z" fill="#2757a1"/>
    <path d="M54.47,5.17a.93.93,0,0,0,0,1.85.93.93,0,1,0,0-1.85h0" fill="#2757a1"/>
    <path d="M64.86,10.5c0-.73-.33-1.1-1-1.1a3.14,3.14,0,0,0-1.29.27,1.86,1.86,0,0,1,.14.7v4.42H60.79V10.5c0-.73-.33-1.1-1-1.1a4.17,4.17,0,0,0-1.16.17v5.22H56.75V8.38a8.62,8.62,0,0,1,3.09-.6,3,3,0,0,1,1.89.54,5.38,5.38,0,0,1,2.33-.54c1.63,0,2.66.63,2.66,2.65v4.36H64.86V10.5Z" fill="#2757a1"/>
  </g>
</svg>
