<svg width="173" height="83" viewBox="0 0 173 83" fill="none" xmlns="http://www.w3.org/2000/svg">
<path d="M20.4428 10.8351C20.5438 10.8914 20.6735 10.8726 20.7168 10.8163C20.7744 10.76 20.6879 10.7036 20.5293 10.7224C20.3708 10.7224 20.3275 10.7787 20.4428 10.8351Z" fill="white"/>
<path d="M16.8675 11.8115C16.6368 12.3749 16.6945 12.4875 17.0116 12.112C17.3144 11.7552 17.3865 11.4547 17.1558 11.4547C17.0837 11.4547 16.954 11.6237 16.8675 11.8115Z" fill="white"/>
<path d="M16.0025 13.295C16.0025 14.0274 15.9592 14.1025 15.397 14.4593C15.0654 14.6658 14.6761 14.8349 14.532 14.8349C14.3878 14.8349 14.2292 14.9851 14.1716 15.1541C14.1283 15.3419 13.9553 15.6799 13.8111 15.8864C13.6093 16.1681 13.5661 16.431 13.6381 16.7878C13.6814 17.0507 13.7679 17.2948 13.8256 17.2948C14.2581 17.4075 15.8871 17.3699 15.9448 17.2385C16.0746 16.9756 16.2908 17.0695 16.2908 17.3887C16.2908 18.121 16.6224 18.2149 18.9579 18.2149C20.2266 18.2149 21.3366 18.1398 21.4952 18.0272C21.8556 17.7643 23.182 17.6891 23.2396 17.9333C23.2685 18.0459 22.9369 18.1398 22.49 18.1774C22.0575 18.2149 21.6394 18.3088 21.5673 18.4215C21.4808 18.5154 21.2501 18.5905 21.0483 18.5905C20.8465 18.5905 20.6014 18.6844 20.5149 18.7971C20.3996 18.9473 20.3275 18.9473 20.2698 18.7971C20.1545 18.5529 19.2318 18.5154 19.1165 18.7595C18.9579 19.0787 14.9356 18.7407 14.6473 18.3839C14.4599 18.1586 13.5516 18.1586 13.5516 18.4027C13.5516 18.7971 15.5411 20.8439 15.9448 20.8439C16.0457 20.8439 16.1611 21.1068 16.2187 21.426C16.3341 22.102 17.2135 23.4353 17.6892 23.6794C17.8766 23.7733 18.0208 23.9611 18.0208 24.1301C18.0208 24.2803 18.0785 24.4118 18.1361 24.4118C18.2803 24.4118 18.8858 23.379 18.8858 23.1349C18.8858 22.8344 19.4048 22.3462 19.7364 22.3462C19.9526 22.3462 20.1112 22.1584 20.2554 21.7265C20.3563 21.4072 20.5005 21.0692 20.5581 20.9941C20.7311 20.7688 21.0483 21.2195 21.0483 21.6889C21.0483 21.933 21.2069 22.3086 21.4231 22.5152C21.9277 23.041 23.5424 23.0597 24.2632 22.5715C24.7101 22.2898 25.2147 21.3321 25.0417 21.1068C24.912 20.9378 25.3301 19.4543 25.5751 19.2477C25.8923 19.0036 26.1086 19.4168 26.0653 20.1867C26.0221 20.6749 26.0653 20.75 26.3825 20.7312C26.5843 20.7125 26.7861 20.8063 26.8438 20.919C26.9015 21.0317 26.988 21.0505 27.0456 20.9753C27.1033 20.919 27.0601 20.7125 26.9591 20.5622C26.8006 20.3181 26.8294 20.2054 27.0889 19.8487C27.4493 19.3229 27.4637 19.1914 27.1466 18.7407C27.0168 18.5529 26.9447 18.3652 26.9736 18.3464C27.0024 18.3088 27.2186 18.1023 27.4493 17.8769L27.853 17.4638L27.5214 17.2948C27.1898 17.107 27.1898 17.107 27.6079 17.1258C28.0981 17.1634 29.1649 16.5061 28.8477 16.3747C28.7468 16.3371 28.6026 16.3934 28.545 16.5249C28.4585 16.6939 28.2422 16.7315 27.8386 16.6376C27.4637 16.5625 27.1466 16.6 26.9591 16.7502C26.5987 17.0507 26.5843 16.9944 26.4834 15.8113L26.3969 14.8349L26.9303 14.5344C27.3196 14.3091 27.7088 14.2715 28.4441 14.3466C28.9775 14.4029 29.41 14.4217 29.41 14.3466C29.41 14.1588 29.0063 13.7082 28.8477 13.7082C28.7612 13.7082 28.5738 13.633 28.4296 13.5391C28.2999 13.4453 27.8818 13.2763 27.4926 13.1636C25.9932 12.7129 25.1426 13.0321 25.4886 13.9523C25.5751 14.1776 25.7049 14.6471 25.7914 14.9851C25.9356 15.586 25.9211 15.6048 25.3733 15.8864C24.9985 16.093 24.8111 16.2996 24.8399 16.4873C24.8543 16.6751 24.8111 16.8066 24.7246 16.8066C24.6525 16.8066 24.5948 16.6563 24.6092 16.4686C24.6525 16.1118 24.3641 16.0367 24.1191 16.3559C24.0326 16.4686 23.3261 16.6 22.5476 16.6563C21.7547 16.7127 21.0051 16.8441 20.8753 16.9192C20.7311 17.0319 20.6014 17.0131 20.5437 16.9005C20.5005 16.8066 19.8806 16.7127 19.1741 16.7127C17.9631 16.7127 17.8911 16.6939 17.8478 16.2808C17.819 15.9991 17.6892 15.8489 17.4441 15.8113L17.0837 15.755L17.4441 16.1306C17.7613 16.4498 17.7757 16.5249 17.5595 16.6188C17.4297 16.6939 17.1702 16.7127 16.9828 16.6751C16.6368 16.6188 16.5359 16.1493 16.3917 13.7457C16.3196 12.619 16.0025 12.2434 16.0025 13.295ZM25.2003 17.6704C24.9552 17.8769 24.5083 17.8769 24.5083 17.6891C24.5083 17.4075 24.6525 17.3324 25.0273 17.4263C25.3012 17.4826 25.3445 17.5577 25.2003 17.6704ZM22.7783 19.4731C22.7783 19.567 22.5765 19.9238 22.3458 20.2806C22.1151 20.6373 21.9133 20.9941 21.9133 21.0692C21.9133 21.1631 21.8124 21.2195 21.6971 21.2195C21.3366 21.2195 21.452 20.8439 22.0431 20.074C22.5909 19.3604 22.7783 19.2102 22.7783 19.4731ZM23.4703 20.5059C23.3694 20.8627 22.9225 20.919 22.9225 20.581C22.9225 20.3932 23.0522 20.2806 23.2252 20.2806C23.3982 20.2806 23.4991 20.3744 23.4703 20.5059ZM24.5371 20.9753C24.5371 21.1068 24.5516 21.3134 24.566 21.426C24.5948 21.7453 23.3406 22.5903 23.182 22.3837C23.0955 22.271 23.1964 22.0457 23.4847 21.764C23.8019 21.4636 23.9316 21.1819 23.9316 20.8063C23.9316 20.3181 23.9605 20.2993 24.22 20.5059C24.3786 20.6373 24.5227 20.8439 24.5371 20.9753ZM22.663 21.7828L22.9081 22.3462H22.4323C21.8556 22.3462 21.625 21.8767 22.0142 21.4824C22.3746 21.1444 22.3891 21.1444 22.663 21.7828Z" fill="white"/>
<path d="M21.5673 12.7505C21.5096 12.8819 21.4952 13.0321 21.5385 13.0885C21.6682 13.2575 21.8124 13.0134 21.7403 12.7505C21.6826 12.5439 21.6538 12.5439 21.5673 12.7505Z" fill="white"/>
<path d="M23.3982 15.9052C23.528 15.9428 23.7587 15.9428 23.9028 15.9052C24.0326 15.8489 23.9172 15.8113 23.6433 15.8113C23.3694 15.8113 23.2541 15.8489 23.3982 15.9052Z" fill="white"/>
<path d="M28.4873 17.952C28.5449 18.2713 28.5017 18.4966 28.3575 18.6468C28.2422 18.7783 28.1124 19.2665 28.0692 19.7547C28.0115 20.5246 28.0548 20.6937 28.3719 21.0317C28.6314 21.3509 28.7468 21.3885 28.8333 21.2194C28.9053 21.088 29.1072 21.0129 29.3234 21.0692C29.5253 21.1256 29.6983 21.088 29.6983 21.0129C29.6983 20.919 29.6118 20.8439 29.5253 20.8251C29.4243 20.8063 29.2081 20.7875 29.0495 20.7688C28.8188 20.75 28.7612 20.5998 28.7179 19.8862C28.6891 19.3416 28.7468 18.9097 28.8765 18.7595C28.9774 18.6093 29.1072 18.3464 29.1648 18.1586C29.2081 17.9896 29.3234 17.8394 29.4099 17.8394C29.482 17.8394 29.5541 17.7455 29.5541 17.6516C29.5541 17.5389 29.2946 17.4638 28.9774 17.4638C28.4296 17.4638 28.4008 17.4826 28.4873 17.952Z" fill="white"/>
<path d="M37.3391 20.0928C37.2238 20.1866 36.9643 20.2805 36.7625 20.2805C36.3011 20.2805 35.465 20.9378 35.465 21.2946C35.465 21.4823 35.6524 21.595 36.0849 21.6326L36.6904 21.6889L36.8057 25.7262C36.9931 32.8056 37.0364 33.2375 37.3824 33.2375C37.541 33.2375 37.8293 33.0498 38.0311 32.8056C38.3195 32.4676 38.4925 32.4113 39.1124 32.4676C41.347 32.7118 41.6641 32.5615 41.6641 31.2471C41.6641 30.5335 41.6209 30.4208 41.3614 30.4208C41.2028 30.4208 40.9 30.5898 40.6982 30.7964C40.3955 31.0968 40.1071 31.1719 39.1989 31.1719H38.06V25.9516C38.06 23.0973 38.0167 20.5622 37.9735 20.3181C37.8725 19.8674 37.6851 19.8111 37.3391 20.0928Z" fill="white"/>
<path d="M82.3191 20.0928C82.2038 20.1866 81.9154 20.2805 81.6992 20.2805C81.1081 20.2805 80.4449 20.7875 80.4449 21.2382C80.4449 21.5387 80.5314 21.595 80.9207 21.5575C81.728 21.5011 81.7424 21.5199 81.7424 24.9563C81.7424 26.6839 81.7857 29.2566 81.8434 30.6649C81.9443 33.5756 81.9875 33.6507 83.0111 32.7681C83.5589 32.2986 83.5878 32.2986 84.669 32.524C85.707 32.7305 85.8079 32.7118 86.1828 32.355C86.4711 32.0733 86.5864 31.7916 86.6153 31.2095C86.6585 30.4584 86.6441 30.4208 86.2404 30.4208C86.0098 30.4208 85.707 30.5898 85.5629 30.7964C85.3466 31.1156 85.1159 31.1719 84.1644 31.1719H83.0399L83.0255 26.9844C82.9967 22.2898 82.8958 20.0552 82.6795 19.9613C82.6074 19.9425 82.4344 19.9989 82.3191 20.0928Z" fill="white"/>
<path d="M88.6625 20.0927C88.5472 20.1866 88.2877 20.2805 88.1147 20.2805C87.5524 20.2805 86.7883 20.8439 86.7883 21.2382C86.7883 21.5199 86.8892 21.595 87.3506 21.595C87.6677 21.595 87.9561 21.6513 87.9849 21.7265C88.0282 21.8203 88.1002 24.393 88.1579 27.4726C88.2732 33.4817 88.2877 33.5568 88.9941 33.0685C89.1671 32.9371 89.4842 32.7305 89.6861 32.5803C89.9888 32.355 90.2195 32.3362 90.9403 32.5052C92.3964 32.8432 92.9875 32.4489 92.9875 31.1532C92.9875 30.5147 92.9442 30.4208 92.6415 30.4208C92.4541 30.4208 92.1369 30.5898 91.9351 30.7964C91.6467 31.0968 91.3584 31.1719 90.479 31.1719H89.3833L89.3689 26.9844C89.3401 22.2898 89.2392 20.0552 89.0229 19.9613C88.9508 19.9425 88.7778 19.9989 88.6625 20.0927Z" fill="white"/>
<path d="M136.454 21.0692C135.084 21.764 135.041 22.1396 136.237 23.3602C136.713 23.8484 137.102 24.3554 137.102 24.4869C137.102 24.5995 136.771 25.0314 136.382 25.4258C134.161 27.6228 133.239 30.2894 134.133 31.8292C134.334 32.1672 134.796 32.6179 135.171 32.862C135.762 33.2188 136.05 33.2563 137.319 33.2C138.616 33.1437 138.89 33.0685 139.625 32.5803C141.312 31.4536 141.701 29.7448 140.851 27.2848C140.505 26.2896 140.13 25.6699 138.905 24.1113C138.068 23.0409 137.391 22.0832 137.391 21.9894C137.391 21.8955 137.521 21.764 137.665 21.6889C137.967 21.5762 138.155 21.1068 138.025 20.8251C137.91 20.5622 137.247 20.6561 136.454 21.0692ZM138.602 26.2332C139.424 27.3412 140.13 29.1063 140.13 30.064C140.13 31.3597 139.178 32.2986 137.867 32.2986C136.353 32.2986 134.94 31.247 134.94 30.1016C134.94 29.2753 135.3 28.2801 135.92 27.3787C136.425 26.6464 137.636 25.3694 137.838 25.3507C137.895 25.3507 138.241 25.745 138.602 26.2332Z" fill="white"/>
<path d="M26.5267 22.0645C26.5267 22.9658 26.4402 23.0973 26.1663 22.609C26.0365 22.3649 25.9356 22.3461 25.7338 22.4776C25.5031 22.6466 25.5464 22.7029 25.9933 22.8907C26.2816 23.0222 26.5844 23.0785 26.6709 23.0034C26.8583 22.8531 26.8583 21.2194 26.6709 21.2194C26.5988 21.2194 26.5267 21.595 26.5267 22.0645Z" fill="white"/>
<path d="M15.4402 22.1584C15.4258 22.6842 14.6473 24.0362 14.359 24.0362C14.2725 24.0362 13.9553 24.3742 13.6526 24.7873C13.3642 25.2004 12.9606 25.6323 12.7587 25.7638C12.5569 25.8765 12.3983 26.0267 12.3983 26.1018C12.3983 26.1769 12.1965 26.5713 11.9514 26.9656C11.7063 27.3787 11.3026 28.205 11.072 28.8247C10.8413 29.4443 10.4232 30.4959 10.1349 31.1719C9.08247 33.707 9.15455 33.4253 8.77972 36.336C8.63555 37.5002 8.4193 38.533 8.20305 39.0964C8.13097 39.2842 8.0733 39.5283 8.0733 39.6597C8.0733 39.7724 7.9868 40.0165 7.87147 40.1667C7.75614 40.3357 7.53989 40.7864 7.36689 41.162C7.19389 41.5563 6.91997 42.1948 6.76139 42.5704C6.4298 43.3215 5.89639 45.6312 5.9973 45.8378C6.02614 45.9129 5.95405 46.2885 5.8243 46.6828C5.69455 47.0771 5.62247 47.6593 5.66572 47.9785C5.70897 48.3165 5.6513 48.6921 5.53597 48.9174C5.29089 49.3493 5.26205 51.6778 5.50714 52.26C5.59364 52.4853 5.66572 52.936 5.6513 53.274C5.60805 54.119 6.02614 55.4335 6.32889 55.3584C6.45864 55.3208 6.71814 54.9828 6.90555 54.5885C7.2948 53.8186 7.48222 53.7434 8.01564 54.2129C8.37605 54.5133 8.39047 54.4946 9.09689 53.5932C9.48614 53.105 9.8033 52.5416 9.8033 52.3538C9.8033 52.1848 9.87539 51.8281 9.9763 51.5652C10.1061 51.1896 10.1781 51.1333 10.3367 51.2835C10.4376 51.3962 10.5241 51.6027 10.5241 51.7529C10.5241 51.8844 10.6106 52.0722 10.726 52.1473C10.8269 52.2224 11.0287 52.598 11.1729 52.9548C11.3171 53.3115 12.4271 54.8701 13.6526 56.4287C16.4782 59.9966 16.8675 60.898 16.4061 62.9824C16.3196 63.3955 16.0457 64.0339 15.8006 64.3719C15.3105 65.0667 13.9409 66.2873 13.6526 66.2873C13.5516 66.2873 13.4075 66.3624 13.3354 66.4563C13.0903 66.7192 11.4612 67.2262 10.7981 67.2262C10.4376 67.2262 10.0916 67.3014 10.0196 67.3952C9.93305 67.4891 9.35639 67.6206 8.72205 67.6769C6.40097 67.8647 4.62772 68.3154 3.60414 69.0102C3.11397 69.3482 2.59497 69.9679 2.59497 70.2308C2.59497 70.4561 2.99864 70.6063 3.53205 70.6063C3.80597 70.6063 4.06547 70.6814 4.10872 70.7941C4.15197 70.888 4.51239 70.9819 4.88722 70.9819C5.26205 70.9819 5.62247 71.057 5.69455 71.1321C5.96847 71.4138 6.8623 71.6955 7.88589 71.8269C9.35639 72.0147 9.48614 72.1649 9.25547 73.5545C9.15455 74.1742 9.08247 74.9253 9.08247 75.2633C9.08247 75.5826 9.01039 75.9018 8.9383 75.9581C8.8518 76.0145 8.79414 76.4652 8.79414 76.9534C8.79414 77.4604 8.69322 78.0238 8.56347 78.2679C8.10214 79.1317 8.62114 79.2068 10.0196 78.4557C10.4232 78.2491 10.9422 77.8548 11.1873 77.5731C11.4324 77.3102 12.0091 76.7468 12.4704 76.3337C13.2201 75.6577 13.6814 75.1695 15.6853 72.9348C16.2476 72.2964 16.4638 71.733 16.1466 71.733C16.0746 71.733 16.0025 71.8081 16.0025 71.902C16.0025 71.9959 15.8871 72.1086 15.7574 72.1649C15.6132 72.2025 15.397 72.3152 15.2672 72.3715C15.1231 72.4654 14.9933 72.3903 14.9501 72.2213C14.8924 72.0523 14.9356 71.9396 15.0366 71.9771C15.1375 71.9959 15.2096 71.7518 15.224 71.3011C15.2384 70.7566 15.1807 70.6063 14.9933 70.6063C14.8491 70.6063 14.705 70.7378 14.6473 70.888C14.5464 71.2448 14.1283 71.2448 13.7246 70.8692C13.5516 70.719 13.3354 70.6439 13.2345 70.719C13.1336 70.8129 13.1047 70.7566 13.1624 70.5688C13.2056 70.3998 13.1768 70.1932 13.0903 70.0805C12.8741 69.7989 13.2056 69.2919 13.6093 69.2919C14.013 69.2919 14.4166 68.4093 14.4166 67.5267C14.4166 66.9821 14.4743 66.8507 14.6906 66.8507C14.8491 66.8507 14.9933 66.738 15.0221 66.6253C15.0654 66.4563 15.1519 66.4751 15.3249 66.7005C15.4546 66.8695 15.57 67.076 15.57 67.1324C15.57 67.2075 15.6709 67.5455 15.8006 67.9023C16.0601 68.6158 16.2908 68.5783 16.2908 67.8459C16.2908 67.3765 16.3052 67.3577 16.5791 67.6957C16.8386 67.9962 16.8675 67.9962 16.954 67.7145C16.9972 67.5455 16.9684 67.3014 16.8819 67.1511C16.7954 67.0197 16.7666 66.8507 16.8242 66.7943C16.8675 66.7192 16.8386 66.569 16.7666 66.4376C16.4782 65.9681 16.435 65.217 16.6656 64.9541C16.8531 64.7663 16.8963 64.7851 16.9684 65.1231C17.0116 65.3484 17.0981 65.5362 17.1702 65.5362C17.2423 65.5362 17.3 65.8179 17.3 66.1747C17.3 66.7756 17.5018 67.2075 17.6748 66.9821C17.7181 66.9258 17.6171 66.3624 17.4586 65.724C17.2856 65.0855 17.1991 64.4846 17.2423 64.3907C17.4009 64.0527 17.5883 64.2405 17.5883 64.7475C17.5883 65.3296 18.1073 65.9305 18.2515 65.4799C18.2803 65.3484 18.2515 64.9916 18.165 64.71C18.0929 64.4283 18.0208 64.0152 18.0208 63.8086C18.0208 63.433 18.0352 63.4143 18.3091 63.7523C18.4677 63.94 18.5975 64.1842 18.5975 64.2968C18.6119 64.4095 18.7561 64.7475 18.9435 65.048C19.203 65.4423 19.3616 65.555 19.5634 65.4423C19.8085 65.3109 19.7941 65.2921 19.4913 65.1043C19.0444 64.8414 18.9146 64.0903 19.2606 63.7335C19.5201 63.4706 19.5057 63.4518 19.0876 63.5457C18.684 63.6208 18.6119 63.5645 18.4533 63.095C18.3091 62.6256 18.3091 62.4941 18.511 62.25C18.6407 62.081 18.7416 61.8557 18.7416 61.743C18.7416 61.6491 18.8426 61.5928 18.9579 61.6491C19.0732 61.7242 19.203 61.6867 19.2462 61.5928C19.3039 61.4801 19.203 61.405 19.0444 61.405C18.857 61.405 18.7272 61.2735 18.7128 61.067C18.7128 60.898 18.684 60.6538 18.6696 60.56C18.6407 60.4473 18.6263 60.2971 18.6119 60.2032C18.6119 60.0905 18.5254 60.1093 18.4245 60.2407C18.2082 60.5224 17.7325 60.5412 17.7325 60.2783C17.7325 60.1656 17.8334 60.0905 17.9487 60.0905C18.0641 60.0905 18.165 60.0154 18.165 59.9215C18.165 59.8276 18.3812 59.5835 18.6407 59.3581L19.1021 58.9638H18.6407C18.3956 58.9638 18.0785 59.0952 17.9631 59.2643C17.7469 59.5271 17.7325 59.5271 17.7325 59.1704C17.7325 58.9262 17.8334 58.776 17.992 58.7572C18.1794 58.7572 18.165 58.7197 17.9199 58.5882C17.5739 58.4005 17.4874 58.1188 17.7181 57.931C17.8046 57.8747 17.9631 57.5742 18.0785 57.255C18.2515 56.8043 18.2659 56.6165 18.1217 56.3161C18.0352 56.1283 17.8478 55.9593 17.7325 55.9593C17.5595 55.9781 17.5595 56.0156 17.7757 56.2222C17.9055 56.3536 18.0208 56.579 18.0208 56.7292C18.0208 57.0484 17.2567 57.5179 16.9107 57.4052C16.7089 57.3301 16.7233 57.3113 16.9684 57.2925C17.1414 57.2925 17.3144 57.1986 17.3576 57.1048C17.473 56.8794 16.8098 56.3348 16.4061 56.3348C16.2187 56.3348 15.9881 56.1658 15.9016 55.9781C15.8006 55.7715 15.5123 55.471 15.2528 55.302C14.5896 54.8889 14.2004 54.4758 14.3157 54.3256C14.3734 54.2692 14.5752 54.3068 14.7626 54.4382C15.2096 54.7575 15.5556 54.5321 15.1807 54.1566C14.9356 53.9312 14.9501 53.9124 15.3537 53.8937C15.8295 53.8937 16.2476 53.6308 16.0601 53.4618C15.9881 53.4242 15.743 53.3679 15.5267 53.3679C15.3105 53.3679 14.9645 53.1989 14.7915 52.9548C14.5464 52.6731 14.4166 52.6167 14.3446 52.767C14.2869 52.8796 14.359 53.0862 14.5031 53.2364C14.8059 53.5181 14.7626 53.6308 14.3446 53.7434C14.1427 53.781 14.0562 53.6871 14.0418 53.4242C14.0274 52.5604 13.4363 51.659 12.8741 51.6403C12.6434 51.6403 12.5425 51.5276 12.5425 51.2647C12.5425 51.0581 12.4416 50.8891 12.3262 50.8891C12.2109 50.8891 12.11 50.7952 12.11 50.7014C12.11 50.3821 12.5425 50.4948 12.8596 50.8891C13.0326 51.0769 13.2201 51.2084 13.2921 51.152C13.5228 50.9643 13.0471 50.2695 12.5281 50.0253L12.0379 49.8L12.456 49.5934C12.6866 49.462 12.9606 49.4057 13.0615 49.462C13.1624 49.5183 13.3498 49.3869 13.494 49.1803C13.6526 48.955 13.9265 48.8235 14.2869 48.8235C14.5896 48.8235 14.878 48.7296 14.9212 48.6357C14.9789 48.5231 14.7482 48.448 14.359 48.448C13.9986 48.448 13.6958 48.5231 13.6958 48.6357C13.6958 48.955 12.7299 48.8611 12.629 48.5231C12.5136 48.1475 12.2541 48.3541 12.2541 48.8423C12.2541 49.293 11.6054 49.3493 11.4756 48.8986C11.2738 48.2414 11.3747 48.0348 11.8216 48.1663C12.0667 48.2414 12.2541 48.2602 12.2541 48.2226C12.2541 48.0348 11.418 46.9457 11.2882 46.9457C11.2017 46.9457 11.0576 46.8143 10.9566 46.664C10.8125 46.4387 10.8269 46.3636 11.0287 46.2697C11.1729 46.1946 11.3459 46.2885 11.4756 46.5514C11.6054 46.7767 11.8505 46.9457 12.0523 46.9457C12.3983 46.9457 12.3983 46.9269 11.8937 46.3072C11.6198 45.9505 11.3891 45.5749 11.3891 45.4622C11.3891 45.3495 11.2594 45.2557 11.0864 45.2557C10.8701 45.2557 10.8125 45.1618 10.8701 44.974C10.9134 44.805 10.7836 44.5045 10.5674 44.2416C10.0772 43.6407 10.2502 43.2276 10.7836 43.7346C11.1585 44.0726 11.1873 44.0726 11.5045 43.7534C11.9514 43.2652 11.9226 42.9459 11.418 43.0774C11.1152 43.1713 10.9278 43.0774 10.5818 42.683C10.3367 42.3826 10.0196 42.0633 9.8898 41.9695C9.67355 41.8005 9.67355 41.7629 9.93305 41.5563C10.1926 41.3498 10.2502 41.3686 10.4376 41.8568C10.6683 42.4201 11.0287 42.7018 11.2594 42.514C11.3315 42.4577 11.2594 42.1948 11.1008 41.9319C10.9422 41.669 10.8125 41.3686 10.8125 41.2559C10.8125 41.162 10.5818 40.7489 10.3079 40.3545C9.81772 39.6409 9.6303 38.871 9.96189 38.871C10.034 38.871 10.0772 38.9462 10.0196 39.0588C9.93305 39.2466 10.3511 39.8663 10.7116 40.0541C10.8413 40.1104 10.9855 40.3733 11.0431 40.6362C11.1296 41.1057 11.7928 41.4812 12.11 41.2183C12.3118 41.0681 12.1532 40.7489 11.8793 40.7489C11.764 40.7489 11.4324 40.4484 11.1441 40.0916C10.8557 39.7348 10.5674 39.4344 10.4953 39.4344C10.4376 39.4344 10.38 39.3029 10.38 39.1339C10.38 38.9086 10.4809 38.8523 10.8125 38.9086C11.4324 39.0213 11.4612 38.5894 10.8846 38.0072C10.1061 37.2373 10.2502 36.6176 11.0287 37.2937C11.5189 37.7068 13.5516 37.8195 13.5516 37.4439C13.5516 37.2937 13.4363 37.181 13.3066 37.181C13.1624 37.181 12.9461 37.0871 12.8308 36.9932C12.6434 36.843 12.6578 36.7866 12.9029 36.5425C13.1768 36.2609 13.1624 36.2609 12.6578 36.2421C12.2541 36.2421 12.11 36.1482 12.0379 35.8477C11.9802 35.6412 11.9802 35.4158 12.0235 35.3595C12.0667 35.3032 11.9946 35.1342 11.8793 34.9839C11.6631 34.7023 11.6486 33.7821 11.8649 33.8009C11.9226 33.8009 12.1532 33.8009 12.3695 33.8009C12.6001 33.8009 12.9173 33.9699 13.0903 34.1765C13.4507 34.6271 13.7679 34.6647 13.6381 34.2516C13.5949 34.0826 13.5516 33.8572 13.5516 33.707C13.5516 33.5756 13.4219 33.4253 13.2633 33.369C13.0471 33.2939 12.975 33.1061 12.975 32.693C12.975 32.017 13.1191 31.9606 13.4796 32.4864C13.6958 32.8057 14.2725 33.031 14.2725 32.7869C14.2725 32.4676 13.3786 31.5475 13.0615 31.5475C12.8596 31.5475 12.6866 31.4536 12.6866 31.3597C12.6866 31.2471 12.802 31.1719 12.9461 31.1719C13.0903 31.1719 13.2777 31.0781 13.3642 30.9654C13.4796 30.8152 13.7246 31.0217 14.2869 31.7541C14.6906 32.3174 15.0654 32.6742 15.0942 32.5428C15.1231 32.4301 14.9933 32.1109 14.7915 31.848C14.5752 31.5851 14.4166 31.2846 14.4166 31.1719C14.4166 31.0405 14.2725 30.7964 14.0995 30.6086C13.8544 30.3457 13.7246 30.3269 13.5805 30.4771C13.4363 30.6274 13.3066 30.6274 13.1191 30.4584C12.9606 30.3457 12.7443 30.2894 12.6146 30.3457C12.4992 30.402 12.3983 30.3833 12.3983 30.2706C12.3983 30.1767 12.7011 30.0265 13.0615 29.9514C13.4651 29.8762 13.6958 29.7448 13.6526 29.6133C13.6237 29.4819 13.4796 29.4068 13.3498 29.4068C13.0326 29.4443 13.0615 29.2941 13.494 28.5242C13.6958 28.1674 14.0562 27.3975 14.2869 26.7966C14.7338 25.6699 15.0221 25.4633 15.2816 26.1206C15.3826 26.3459 15.5411 26.4586 15.6565 26.4023C15.7862 26.3459 15.8871 26.4774 15.9448 26.759C16.0025 27.0219 16.1322 27.2285 16.2764 27.2285C16.4061 27.2285 16.5936 27.3224 16.6945 27.4538C16.8242 27.6228 16.8675 27.6228 16.8819 27.4163C16.9251 26.7027 16.8242 26.1581 16.5647 25.8014C16.4206 25.5948 16.2908 25.3319 16.2908 25.238C16.2908 25.1253 16.089 24.6934 15.8439 24.2615C15.5411 23.7357 15.4402 23.379 15.5267 23.2287C15.5988 23.1161 15.6132 22.7029 15.5556 22.3462C15.4835 21.8391 15.4546 21.8016 15.4402 22.1584ZM15.2816 24.5244C15.2816 24.6747 15.224 24.7498 15.1375 24.6934C15.0654 24.6371 14.9933 24.5057 14.9933 24.393C14.9933 24.2991 15.0654 24.224 15.1375 24.224C15.224 24.224 15.2816 24.3554 15.2816 24.5244ZM12.2541 29.6697C12.2541 29.7636 12.1244 29.8575 11.9514 29.8575C11.7928 29.8575 11.7063 29.7636 11.7496 29.6697C11.7928 29.557 11.937 29.4819 12.0523 29.4819C12.1676 29.4819 12.2541 29.557 12.2541 29.6697ZM12.0091 36.4674C12.4848 36.7679 12.4416 37.0683 11.9226 37.1434C11.6631 37.181 11.5045 37.1059 11.4468 36.9181C11.4036 36.7491 11.2306 36.6176 11.0864 36.6176C10.9422 36.6176 10.8125 36.5238 10.8125 36.4299C10.8125 36.167 11.5477 36.2045 12.0091 36.4674ZM10.1926 43.3027C10.0196 43.5281 9.65914 43.2088 9.76005 42.9084C9.83214 42.6267 9.86097 42.6267 10.0628 42.8896C10.1926 43.0586 10.2502 43.2276 10.1926 43.3027ZM8.4193 45.2744C8.37605 45.3683 8.27514 45.4059 8.20305 45.3308C8.13097 45.2744 8.10214 45.143 8.1598 45.0491C8.20305 44.9552 8.30397 44.9176 8.37605 44.9928C8.44814 45.0491 8.47697 45.1805 8.4193 45.2744ZM10.38 45.6312C10.38 45.7251 10.2791 45.819 10.1637 45.819C10.0484 45.819 9.94747 45.7251 9.94747 45.6312C9.94747 45.5186 10.0484 45.4434 10.1637 45.4434C10.2791 45.4434 10.38 45.5186 10.38 45.6312ZM16.9396 58.4005C16.9828 58.4943 16.954 58.5882 16.8819 58.5882C16.7954 58.5882 16.7233 58.4943 16.7233 58.4005C16.7233 58.2878 16.7521 58.2127 16.781 58.2127C16.8242 58.2127 16.8963 58.2878 16.9396 58.4005ZM16.2908 66.4751C16.2908 66.6817 16.2331 66.8507 16.1466 66.8507C16.0746 66.8507 16.0025 66.6817 16.0025 66.4751C16.0025 66.2686 16.0746 66.0995 16.1466 66.0995C16.2331 66.0995 16.2908 66.2686 16.2908 66.4751ZM13.5084 68.6534C13.4651 68.7097 13.3354 68.7285 13.2345 68.6722C13.1191 68.6158 13.1624 68.5595 13.321 68.5595C13.4796 68.5407 13.5661 68.5971 13.5084 68.6534Z" fill="white"/>
<path d="M61.4438 22.4588C61.0257 22.8344 61.0401 23.1348 61.5015 24.0362C61.9484 24.9188 61.9196 25.4821 61.3285 26.7027C60.8816 27.6228 59.3822 30.0452 59.2525 30.0452C59.1804 30.0452 58.8632 29.2753 58.5605 28.3552C58.4884 28.0923 58.2866 27.5102 58.1424 27.0407C57.9838 26.5713 57.609 25.3694 57.2918 24.3366C56.9891 23.3226 56.6575 22.44 56.5421 22.4025C56.2971 22.271 55.7925 22.8719 55.7925 23.3226C55.7925 23.5104 55.8501 23.8108 55.9222 23.9986C56.1385 24.5244 56.4412 25.5009 57.2053 28.0735C58.6037 32.7681 58.7479 33.1437 59.0939 33.2C59.512 33.2939 59.9733 32.7493 59.9733 32.186C59.9733 31.5475 60.2328 30.8715 61.0834 29.2565C62.3665 26.8717 63.0008 25.3131 63.0008 24.6371C63.0008 23.886 62.5251 22.609 62.1502 22.3461C61.7898 22.102 61.8331 22.102 61.4438 22.4588Z" fill="white"/>
<path d="M129.534 22.3837C128.957 22.6466 128.308 23.2287 127.933 23.8108C127.559 24.3554 127.299 24.224 127.299 23.4916C127.299 22.6654 127.025 22.4776 126.203 22.7405C125.137 23.0597 124.488 23.5104 124.488 23.9423C124.488 24.2615 124.574 24.3179 125.021 24.2615C125.31 24.2427 125.598 24.3179 125.656 24.4305C125.713 24.562 125.814 25.8952 125.872 27.3975C126.175 34.0826 126.16 33.9511 126.449 34.045C126.593 34.1013 126.823 33.9511 126.996 33.7258C127.256 33.369 127.299 33.0685 127.299 31.6789C127.299 30.1955 127.328 30.0452 127.573 30.0452C127.861 30.0452 128.885 30.8903 130.716 32.6366C131.639 33.538 131.812 33.6319 132.359 33.5755C132.893 33.5192 133.023 33.4253 133.253 32.8995C133.469 32.4301 133.498 32.2235 133.369 32.0545C133.239 31.8855 133.138 31.8855 132.95 32.0733C132.446 32.5427 132.345 32.5052 131.451 31.6226C130.11 30.2893 130.082 30.2142 130.802 29.8011C131.739 29.2753 132.258 28.6556 132.677 27.6041C133.123 26.4961 133.167 25.7074 132.835 24.6746C132.172 22.5903 130.932 21.7452 129.534 22.3837ZM130.471 23.5667C131.451 24.224 132.028 26.1393 131.639 27.3787C131.538 27.6792 131.206 28.1111 130.874 28.3552C130.355 28.7308 130.154 28.7683 129 28.6932C128.135 28.6181 127.631 28.5054 127.487 28.3176C127.371 28.1674 127.256 27.5853 127.213 27.0219C127.141 26.083 127.184 25.9328 127.66 25.1253C128.582 23.5104 129.563 22.9658 130.471 23.5667Z" fill="white"/>
<path d="M47.1425 22.9471C46.3063 23.5667 45.7008 24.224 45.7008 24.4869C45.7008 24.9 46.1189 24.9939 46.5802 24.6747C47.0848 24.3367 47.2867 24.4869 47.6471 25.407C47.9931 26.3272 47.9354 26.421 46.8253 26.7591C44.8358 27.3412 43.0049 28.5242 42.5003 29.5195C41.9381 30.6462 42.0967 31.679 42.9472 32.4301C43.9132 33.2751 46.0757 32.8996 47.5173 31.6226C48.1517 31.0593 48.44 31.1532 48.44 31.9231C48.44 32.7118 48.7427 32.8057 49.5501 32.2423C50.3574 31.6977 50.5016 31.2471 49.9682 30.9842C49.651 30.8339 49.5933 30.7025 49.5933 29.9889C49.5933 28.0923 49.0455 24.5996 48.5409 23.379C48.3679 22.9471 48.0075 22.5339 47.7912 22.5527C47.7192 22.5527 47.4164 22.7405 47.1425 22.9471ZM48.1228 28.6744C48.1661 29.5946 48.1372 29.6885 47.6182 30.3645C46.5082 31.8104 45.0088 32.2986 44.1294 31.51C43.4086 30.8715 43.2788 30.5147 43.5383 29.9138C43.8267 29.2566 44.634 28.6557 45.845 28.1862C47.8922 27.3787 48.0652 27.4163 48.1228 28.6744Z" fill="white"/>
<path d="M71.2183 22.7781C70.5119 23.0785 69.4018 24.562 69.1856 25.5385C69.0558 26.083 68.854 26.4586 68.5224 26.7403C68.0034 27.1722 67.816 27.5853 68.0899 27.698C68.9837 28.1111 68.9982 28.1299 69.1712 29.1251C69.5892 31.4912 70.7426 32.862 72.2852 32.862C73.4385 32.862 74.1593 32.3738 75.255 30.8527C76.1777 29.5758 76.2642 29.219 75.6731 29.1627C75.3992 29.1251 75.1541 29.388 74.563 30.3269C73.6115 31.848 72.9339 32.2048 72.0977 31.6226C71.5643 31.2658 70.6993 29.7824 70.5552 28.9937C70.3822 28.1111 70.5407 27.9796 71.7517 27.9796C74.0007 27.9796 75.2982 27.4914 75.3703 26.6088C75.4136 26.1769 75.3703 26.1018 75.082 26.1018C74.6639 26.1018 74.4765 26.2708 74.2602 26.7966C74.1161 27.1722 73.9719 27.2285 73.3376 27.2097C72.9195 27.2097 72.0689 27.0971 71.4346 26.9844L70.2812 26.7591L70.238 26.1206C70.1227 24.5057 71.5643 23.1348 72.6312 23.8296C74.2602 24.9 74.4332 24.9563 74.8657 24.5057C75.4712 23.9235 74.9667 23.3226 73.4529 22.7968C72.5302 22.4964 71.9247 22.4776 71.2183 22.7781Z" fill="white"/>
<path d="M96.7646 22.778C95.7843 23.2475 94.5733 24.9751 94.5733 25.914C94.5733 26.1581 94.3859 26.4398 94.0831 26.6839C93.4921 27.1346 93.3191 27.5853 93.6795 27.7167C94.4147 28.0172 94.5733 28.1862 94.5733 28.6181C94.5733 29.7823 95.6257 31.9418 96.4475 32.4864C97.1395 32.9559 98.3505 32.9746 99.129 32.5615C99.4317 32.3925 100.095 31.7165 100.599 31.0405C101.493 29.8574 101.681 29.2753 101.191 29.1439C100.96 29.0875 100.787 29.2941 99.9219 30.6274C99.3741 31.4724 98.4802 32.0169 97.9324 31.8292C97.0386 31.5475 95.5681 28.712 96.0582 28.205C96.1591 28.1111 96.9809 27.9796 97.8891 27.9233C98.9416 27.8669 99.7633 27.7167 100.153 27.5102C100.772 27.1909 101.075 26.6088 100.801 26.252C100.571 25.9516 99.9363 26.2332 99.8354 26.6651C99.7921 26.8717 99.5759 27.097 99.3596 27.1722C98.8551 27.3224 95.9717 26.8717 95.842 26.59C95.5104 25.9516 95.9717 24.3554 96.6061 23.9423C97.2548 23.4916 97.9612 23.6418 99.1434 24.4681C99.7489 24.8812 100.095 24.8812 100.412 24.4117C100.888 23.7357 100.556 23.3602 98.9271 22.7968C98.0189 22.4776 97.4134 22.4776 96.7646 22.778Z" fill="white"/>
<path d="M109.639 22.8156C108.615 23.1161 108.211 23.379 107.779 23.9799C106.827 25.3131 107.678 26.6464 110.432 28.1486C111.945 28.9749 112.695 29.5007 113.156 30.0828C113.401 30.402 113.603 30.7213 113.603 30.7964C113.603 31.3973 111.931 31.9794 110.446 31.8855C109.437 31.8292 109.379 31.7728 109.134 30.4584C109.004 29.8011 108.918 29.6697 108.63 29.6697C108.038 29.6697 107.822 30.3457 107.981 31.6226C108.053 32.2235 108.197 32.8244 108.284 32.9747C108.413 33.1812 108.86 33.2375 110.114 33.2375C112.248 33.2375 113.531 32.7681 114.353 31.6977C115.55 30.1391 114.757 28.8434 111.426 26.9468C109.841 26.0642 108.702 24.9939 108.702 24.4493C108.702 23.9799 109.653 23.6606 110.965 23.6794C112.09 23.6982 113.113 23.9986 113.084 24.3366C113.084 24.4305 113.027 24.7498 112.969 25.0314C112.81 25.745 113.027 26.0267 113.474 25.7075C114.108 25.2756 114.858 23.5292 114.569 23.1724C114.093 22.609 111.052 22.3837 109.639 22.8156Z" fill="white"/>
<path d="M120.812 23.0409C120.451 23.3038 120.019 23.6982 119.846 23.9047C119.197 24.6559 119.615 25.2568 120.365 24.6747C120.696 24.4118 120.84 24.393 120.999 24.562C121.23 24.8061 121.619 26.2333 121.504 26.4023C121.46 26.4398 120.884 26.6652 120.221 26.8717C117.726 27.6416 115.91 29.2753 115.91 30.74C115.91 31.6414 116.112 32.0545 116.775 32.4864C117.914 33.2563 120.004 32.8432 121.359 31.5851C121.936 31.0405 122.109 31.0593 122.109 31.679C122.109 32.8057 122.57 32.9371 123.551 32.0733C124.171 31.51 124.243 31.2095 123.781 30.9842C123.508 30.8527 123.407 30.6649 123.407 30.2894C123.407 29.5195 123.118 26.6652 122.945 25.8201C122.585 24.0174 121.994 22.5339 121.633 22.5339C121.532 22.5339 121.172 22.7593 120.812 23.0409ZM121.878 27.9045C122.109 28.6932 121.965 29.4819 121.432 30.2518C120.696 31.3222 119.903 31.8104 118.909 31.8104C117.698 31.8292 117.034 31.0968 117.265 29.9889C117.409 29.2753 118.793 28.3552 120.451 27.8857C121.605 27.5477 121.778 27.5477 121.878 27.9045Z" fill="white"/>
<path d="M147.555 22.7593C146.372 23.21 146.099 23.3602 145.868 23.6231C145.32 24.2428 145.81 24.7122 146.459 24.1864C146.603 24.0738 146.834 24.0362 146.964 24.0925C147.165 24.2052 147.194 24.7122 147.194 28.543V32.8808L147.569 32.8244C148.074 32.7493 148.131 32.5615 148.391 30.3269C148.679 27.8857 149.083 26.5149 149.876 25.3695C150.683 24.1864 151.188 23.9423 151.779 24.4118C152.471 24.9751 152.6 25.4258 152.572 27.4163C152.557 28.8622 152.471 29.5007 152.139 30.7964C151.908 31.679 151.735 32.5052 151.779 32.6367C151.808 32.7869 152.182 32.862 152.932 32.862C153.869 32.862 154.071 32.8057 154.215 32.5052C154.431 32.0545 154.33 31.9231 153.739 31.9231C153.48 31.9231 153.22 31.848 153.177 31.7353C153.134 31.6414 153.264 30.9278 153.465 30.1391C154.201 27.2661 154.085 24.7685 153.148 23.548C152.73 22.9846 152.572 22.9095 151.937 22.9095C151 22.9095 150.063 23.5292 149.169 24.7685C148.78 25.2943 148.405 25.7262 148.333 25.7262C148.261 25.7262 148.203 25.0502 148.203 24.2428C148.203 23.4165 148.16 22.7029 148.102 22.6654C148.03 22.6278 147.8 22.6654 147.555 22.7593Z" fill="white"/>
<path d="M158.007 22.7781C157.3 23.0785 156.248 24.5244 155.988 25.5197C155.859 26.0643 155.628 26.4586 155.311 26.7403C154.72 27.2285 154.705 27.6604 155.282 27.8858C155.657 28.0548 155.772 28.2425 156.046 29.3129C156.695 31.8668 157.589 32.862 159.189 32.862C160.313 32.862 161.005 32.3738 162.159 30.7025C162.952 29.5946 163.024 29.2378 162.519 29.1439C162.317 29.1063 162 29.4256 161.467 30.233C160.328 31.9606 159.665 32.2611 158.756 31.5475C157.906 30.8715 156.997 28.5242 157.444 28.1487C157.56 28.0548 158.064 27.9796 158.583 27.9796C159.794 27.9609 161.193 27.698 161.712 27.3787C161.986 27.2097 162.13 26.9656 162.159 26.6088C162.202 26.1769 162.159 26.1018 161.841 26.1018C161.596 26.1018 161.366 26.2896 161.149 26.6652C160.789 27.3224 160.457 27.36 158.41 27.0032C157.271 26.8154 157.127 26.7403 157.055 26.3647C156.752 24.8061 158.324 23.1161 159.419 23.8296C161.121 24.9376 161.25 24.9751 161.741 24.393C162.043 24.0362 162.043 23.9799 161.827 23.6606C161.294 22.8907 158.973 22.3462 158.007 22.7781Z" fill="white"/>
<path d="M30.2749 22.9283C30.2893 23.0785 30.4768 23.4916 30.7074 23.8484C31.1255 24.4681 31.2841 25.3507 30.9958 25.3507C30.9237 25.3507 30.8516 25.2568 30.8516 25.1629C30.8516 25.0502 30.7651 24.9751 30.6498 24.9751C30.52 24.9751 30.4479 25.238 30.4479 25.8389C30.4335 26.3272 30.3903 26.7591 30.347 26.8154C30.3038 26.8717 30.1163 26.7403 29.9433 26.5149C29.6118 26.1018 29.5973 26.1018 29.3523 26.4586C29.0495 26.9093 29.136 27.7919 29.4964 27.7919C29.655 27.7919 29.6838 27.6792 29.6262 27.4163C29.5541 27.1158 29.5973 27.0407 29.828 27.0407C30.0443 27.0407 30.1308 27.1534 30.1308 27.4914C30.1308 28.0735 30.8372 29.0688 30.9958 28.7308C31.1543 28.3928 31.0823 27.0219 30.866 26.5337C30.6498 25.9891 30.6642 25.9328 31.0246 25.745C31.2697 25.6324 31.3562 25.4258 31.3706 24.8624C31.385 24.4681 31.3418 24.0925 31.2985 24.0362C31.2553 23.9799 31.1399 23.7733 31.0534 23.5855C30.9813 23.379 30.7651 23.0973 30.5921 22.9471C30.3326 22.7217 30.2749 22.7217 30.2749 22.9283ZM30.8516 27.6416C30.8516 27.7355 30.7507 27.7919 30.6353 27.7919C30.3903 27.7919 30.3758 27.7543 30.5056 27.3224C30.5777 27.0783 30.6209 27.0595 30.7218 27.2661C30.7939 27.3975 30.8516 27.5665 30.8516 27.6416Z" fill="white"/>
<path d="M65.567 22.9095C64.6011 23.1348 64.0965 23.4916 64.0388 24.0174C63.9812 24.4493 64.01 24.4493 64.6443 24.3366C65.0047 24.2615 65.3219 24.224 65.3363 24.2615C65.3507 24.2991 65.394 26.3084 65.4372 28.7308C65.5237 32.8056 65.5382 33.1437 65.7832 33.2C65.9274 33.2375 66.1725 33.1249 66.3311 32.9371C66.5906 32.6366 66.605 32.3174 66.605 27.6604C66.605 23.8296 66.5617 22.7217 66.432 22.7405C66.3311 22.7593 65.9418 22.8344 65.567 22.9095Z" fill="white"/>
<path d="M78.2392 22.9095C77.3887 23.0973 76.8408 23.548 76.8408 24.0362C76.8408 24.3742 76.9273 24.4118 77.4607 24.3742L78.0662 24.3179L78.1383 28.7308L78.2104 33.1437L78.5997 33.2C78.8736 33.2375 79.0466 33.1437 79.2196 32.8056C79.407 32.4113 79.4358 31.6789 79.407 27.5853C79.3637 22.2522 79.4502 22.6466 78.2392 22.9095Z" fill="white"/>
<path d="M143.878 22.8532C142.667 23.0785 142.004 23.5292 142.004 24.1301C142.004 24.4118 142.105 24.4305 142.638 24.3366C143.143 24.224 143.287 24.2615 143.359 24.5056C143.403 24.6747 143.446 25.8952 143.446 27.1909C143.446 28.5054 143.489 30.402 143.547 31.3973C143.619 32.9559 143.676 33.2375 143.878 33.2375C144.008 33.2375 144.224 33.0873 144.368 32.8995C144.57 32.5803 144.599 32.017 144.57 27.698C144.541 24.6559 144.469 22.8344 144.383 22.8156C144.311 22.7968 144.08 22.8156 143.878 22.8532Z" fill="white"/>
<path d="M25.0994 23.6043C24.9985 23.9047 24.8399 24.3366 24.7534 24.5808C24.566 25.069 23.9605 25.576 23.3261 25.8014C22.6341 26.0079 22.8648 27.0971 23.6721 27.4726C23.8163 27.5477 23.8884 27.698 23.8451 27.867C23.8019 28.0172 23.874 28.4679 24.0037 28.8622C24.1335 29.2566 24.2921 29.7448 24.3641 29.9514C24.4218 30.1579 24.5948 30.6837 24.7534 31.0968L25.0561 31.8855L24.6669 32.1296C24.3065 32.355 24.1911 32.3925 23.8307 32.4489C23.7154 32.4676 23.6433 32.7869 23.6433 33.2376C23.6433 33.7633 23.5712 34.045 23.4126 34.1201C23.2396 34.1952 23.2108 34.383 23.2685 34.7961C23.355 35.3219 23.3406 35.3407 22.9225 35.2468C22.4611 35.1154 21.8268 34.4018 21.8845 34.0638C21.8989 33.9511 21.7547 33.707 21.5529 33.538C21.3511 33.369 21.1925 33.1061 21.1925 32.9559C21.1925 32.6742 20.4861 32.1109 20.1256 32.1109C19.9959 32.1109 19.9382 32.2235 19.9815 32.3738C20.0247 32.524 20.1545 32.5991 20.2698 32.5428C20.5437 32.4113 20.9041 32.8244 20.9041 33.2751C20.9041 33.6507 21.1781 34.1765 22.0575 35.5285C22.3314 35.9604 22.5476 36.4486 22.5188 36.6364C22.49 36.8054 22.5476 37.012 22.6341 37.0871C22.7351 37.1622 22.7351 37.3124 22.6197 37.5753C22.5188 37.857 22.5188 38.026 22.6486 38.2326C22.7639 38.4204 22.7783 38.5706 22.6486 38.7396C22.5621 38.8898 22.5476 39.0588 22.6053 39.1339C22.663 39.209 22.6053 39.378 22.49 39.4907C22.3746 39.6222 22.2737 40.0165 22.2737 40.3733C22.2737 40.7301 22.2161 41.4437 22.1584 41.9319C22.0863 42.6642 22.1007 42.852 22.2881 42.9459C22.4179 43.0023 22.5765 42.9459 22.6486 42.7957C22.7495 42.5704 22.7783 42.5704 22.7783 42.8145C22.7783 42.9647 22.6486 43.2088 22.49 43.3403C22.1728 43.6032 22.1007 44.2228 22.3891 44.3919C22.4756 44.4482 22.4035 44.4482 22.2016 44.3919C21.8412 44.2604 21.8412 44.2792 22.1151 44.6547C22.2593 44.8801 22.5188 45.0679 22.6918 45.1054C22.9513 45.1618 22.9081 45.2369 22.4611 45.481C22.1728 45.65 21.798 45.7439 21.6394 45.6876C21.4376 45.6312 21.3078 45.6876 21.2501 45.8941C21.1492 46.2509 20.3275 46.3072 20.3275 45.9504C20.3275 45.5373 20.0968 45.2369 19.8517 45.3683C19.5778 45.4998 19.5201 46.1007 19.7508 46.2885C19.9671 46.4575 19.9238 47.0584 19.6787 47.3213C19.549 47.4715 19.4913 47.7156 19.549 47.9973C19.6211 48.3353 19.5778 48.448 19.3904 48.448C19.203 48.448 19.1597 48.5606 19.2174 48.955C19.2606 49.2366 19.2318 49.631 19.1453 49.8188C19.0588 50.0441 19.0588 50.2319 19.1597 50.4009C19.2606 50.5699 19.2318 50.7201 19.03 50.9455C18.8714 51.1145 18.7416 51.3586 18.7272 51.49C18.7272 51.6215 18.6984 51.9407 18.684 52.2036C18.6551 52.4665 18.7272 52.8609 18.8426 53.0862L19.0588 53.5181L19.4913 52.936C19.8229 52.5041 19.895 52.3163 19.7652 52.1473C19.6499 51.9971 19.6066 52.0158 19.6066 52.26C19.6066 52.429 19.549 52.5792 19.4625 52.5792C19.2462 52.5792 19.2751 52.4665 19.6931 51.6403C20.0391 50.9455 20.6158 50.6075 20.6158 51.0769C20.6158 51.1708 20.5581 51.2647 20.4716 51.2647C20.3996 51.2647 20.3275 51.4525 20.3275 51.6778C20.3275 51.9971 20.3707 52.0346 20.5005 51.8656C20.6014 51.7342 20.7888 51.6403 20.9474 51.6403C21.106 51.6403 21.279 51.3962 21.4231 50.983C21.5385 50.6262 21.7547 50.2131 21.9133 50.1004C22.0719 49.969 22.2016 49.7061 22.2016 49.5371C22.2016 49.3493 22.2737 49.1991 22.3458 49.1991C22.4323 49.1991 22.49 49.0301 22.49 48.8235C22.49 48.1851 22.7351 48.4104 23.1964 49.4808C23.4415 50.0441 23.7731 50.6262 23.9316 50.7389C24.0902 50.8704 24.22 51.1333 24.22 51.3023C24.22 51.49 24.2921 51.6403 24.3641 51.6403C24.4506 51.6403 24.5083 51.7529 24.5083 51.8844C24.5083 52.0158 24.6381 52.4665 24.7966 52.8796C25.0561 53.5744 25.0706 53.5932 25.085 53.0862C25.085 52.5041 24.5516 50.8891 24.3497 50.8891C24.2776 50.8891 24.22 50.7201 24.22 50.5323C24.22 50.3258 24.1623 50.1192 24.0902 50.0629C23.9316 49.9314 23.8019 48.786 23.7442 47.1898C23.7298 46.5514 23.6577 45.9692 23.6001 45.8941C23.5424 45.819 23.4991 45.312 23.4991 44.7674C23.4991 44.2228 23.4415 43.7158 23.355 43.6595C23.1099 43.4529 23.1964 42.1197 23.4991 41.3498C23.6577 40.9366 23.8307 40.1667 23.8884 39.6409C23.9461 38.8898 24.0181 38.6833 24.1767 38.7584C24.2921 38.8335 24.4218 38.871 24.4506 38.871C24.4795 38.871 24.5083 39.0776 24.5083 39.3405C24.5083 39.6034 24.6381 40.148 24.7822 40.5423C24.9408 40.9366 25.0994 41.5 25.1282 41.7817C25.1859 42.345 25.431 42.5891 25.5896 42.2511C25.7193 41.9882 25.7049 38.3077 25.5751 37.8758C25.4166 37.3312 25.6905 37.181 26.3104 37.4814C26.6276 37.6129 26.988 37.688 27.1321 37.6317C27.2619 37.5941 27.4061 37.6317 27.4637 37.7443C27.5791 37.9885 28.2566 37.9885 28.2566 37.7443C28.2566 37.6317 28.1701 37.5566 28.0692 37.5566C27.9539 37.5566 27.7521 37.3876 27.6079 37.181C27.4349 36.9181 27.2475 36.8618 26.9447 36.9369C26.6564 37.012 26.5266 36.9557 26.5266 36.8054C26.5266 36.674 26.642 36.6176 26.8006 36.674C26.9736 36.7303 27.1177 36.6552 27.161 36.4862C27.2186 36.2796 27.3051 36.2609 27.4349 36.3923C27.5214 36.4862 27.7665 36.6364 27.9683 36.7115C28.1557 36.7866 28.5017 37.0308 28.718 37.2373C29.0351 37.5378 29.1649 37.5753 29.2946 37.4063C29.4388 37.2185 29.3091 36.9932 28.7612 36.3547C28.3576 35.8853 27.853 35.4534 27.6079 35.3783C27.1033 35.228 26.7429 34.9839 26.1662 34.383C25.6761 33.876 25.7049 33.9887 25.6761 32.1484C25.6616 31.1532 25.604 30.7964 25.4742 30.7964C25.3589 30.7964 25.1571 30.6274 25.0129 30.4208C24.7822 30.0828 24.7678 30.0077 24.9696 29.7072C25.2724 29.2753 25.6616 28.036 25.6616 27.529C25.6616 27.3036 25.8346 26.8154 26.0365 26.4586C26.2383 26.1018 26.4546 25.6887 26.5266 25.5385C26.6276 25.3319 26.7141 25.3131 27.0168 25.5009C27.4926 25.7826 28.1125 25.5009 28.1125 25.0127C28.1125 24.8249 28.1846 24.5808 28.2855 24.4493C28.5738 24.0737 28.3143 23.9986 27.853 24.2991C27.5214 24.5244 27.4349 24.6934 27.4926 24.9751C27.5935 25.5009 27.4637 25.4446 26.9159 24.731C26.3104 23.9423 25.5175 23.0973 25.3877 23.0973C25.3301 23.0973 25.2003 23.3226 25.0994 23.6043ZM25.1715 33.1812C25.5896 33.6882 25.5896 33.6882 25.2291 33.5568C25.0273 33.4817 24.8255 33.4253 24.7822 33.4253C24.6525 33.4253 24.5083 32.6742 24.6381 32.6742C24.7101 32.6742 24.9408 32.8995 25.1715 33.1812ZM26.4546 35.4909C26.4978 35.5848 26.469 35.6787 26.3969 35.6787C26.3104 35.6787 26.2383 35.5848 26.2383 35.4909C26.2383 35.3783 26.2671 35.3032 26.296 35.3032C26.3392 35.3032 26.4113 35.3783 26.4546 35.4909ZM24.9408 37.3876C24.9408 37.5941 24.5516 37.6129 24.4506 37.3876C24.4074 37.3124 24.4074 37.181 24.4506 37.1247C24.566 36.9744 24.9408 37.181 24.9408 37.3876ZM23.2108 44.0163C23.2108 44.2792 23.1531 44.5421 23.0666 44.5984C22.9801 44.6735 22.9225 44.467 22.9225 44.1477C22.9225 43.8285 22.9946 43.5656 23.0666 43.5656C23.1531 43.5656 23.2108 43.7722 23.2108 44.0163Z" fill="white"/>
<path d="M20.14 23.7733C20.0391 23.9235 20.4716 24.393 21.2212 24.9375C21.697 25.2943 21.7691 25.2943 21.9421 25.0314C22.0862 24.7873 22.1007 24.7122 21.9421 24.6371C21.8412 24.5995 21.5672 24.3554 21.351 24.1113C20.9617 23.6794 20.3418 23.5104 20.14 23.7733Z" fill="white"/>
<path d="M29.2082 23.8109C29.1073 24.0362 29.8137 24.5244 29.9434 24.3367C30.0155 24.2615 29.929 24.0738 29.7849 23.9235C29.4533 23.6231 29.3091 23.5855 29.2082 23.8109Z" fill="white"/>
<path d="M20.9042 26.083C20.9042 26.5713 21.1348 26.7403 21.2502 26.3647C21.3943 25.8953 21.3511 25.7262 21.1204 25.7262C21.0051 25.7262 20.9042 25.8953 20.9042 26.083Z" fill="white"/>
<path d="M28.3142 26.083C28.1268 26.3647 27.9971 26.421 27.7952 26.2708C27.4925 26.0643 27.4781 26.1018 27.7087 26.759C27.8962 27.3036 28.1124 27.3787 28.1124 26.8717C28.1124 26.6276 28.2566 26.4962 28.5593 26.4023C28.8044 26.3459 28.9774 26.1957 28.9486 26.0643C28.8477 25.6887 28.5737 25.6887 28.3142 26.083Z" fill="white"/>
<path d="M17.3576 27.5102C17.2999 27.6792 17.4153 27.9984 17.6459 28.2989C17.8478 28.5618 18.0208 28.8622 18.0208 28.9373C18.0208 29.0312 18.1361 29.1063 18.2803 29.1063C18.4244 29.1063 18.6118 29.2002 18.7128 29.3317C18.8425 29.5007 18.8858 29.4631 18.8858 29.1627C18.8858 28.881 18.7848 28.7308 18.5686 28.6932C18.3523 28.6557 18.2514 28.5242 18.2803 28.3177C18.2947 28.1487 18.1217 27.8294 17.8766 27.6041C17.5018 27.2473 17.4297 27.2473 17.3576 27.5102Z" fill="white"/>
<path d="M14.8492 28.3364C14.7338 28.4491 14.4599 28.4679 14.2148 28.4115L13.7823 28.2989L14.0995 28.8622C14.2725 29.1815 14.4167 29.5382 14.4167 29.6697C14.4167 29.7824 14.4888 29.8199 14.5608 29.7636C14.6473 29.7072 14.705 29.4068 14.705 29.1251C14.705 28.6557 14.7483 28.6181 15.1375 28.6932C15.5844 28.7683 15.743 28.4867 15.3393 28.2801C15.0654 28.1486 15.1087 28.1299 14.8492 28.3364Z" fill="white"/>
<path d="M15.7142 29.6697C15.7142 29.7636 15.5412 29.9138 15.3393 29.9701C14.9933 30.0828 14.9789 30.1203 15.2096 30.2894C15.4114 30.4208 15.5123 30.402 15.6421 30.1579C15.743 29.9889 15.9304 29.8575 16.0602 29.8575C16.1899 29.8575 16.2908 29.7636 16.2908 29.6697C16.2908 29.557 16.1611 29.4819 16.0025 29.4819C15.8439 29.4819 15.7142 29.557 15.7142 29.6697Z" fill="white"/>
<path d="M19.9382 29.6133C19.7652 29.6509 19.5489 29.8011 19.4624 29.9513C19.2606 30.2706 19.5201 30.3645 20.832 30.4959C22.0286 30.5898 22.5043 30.7776 22.9224 31.2658C23.3693 31.7916 23.9316 32.186 24.0325 32.0357C24.0758 31.9794 24.0037 31.7165 23.8739 31.4724C23.6288 30.9654 22.7494 30.3645 21.9133 30.1391C21.6393 30.064 21.2789 29.8762 21.1203 29.7448C20.8464 29.4819 20.5581 29.4631 19.9382 29.6133Z" fill="white"/>
<path d="M17.5594 29.8011C17.6603 29.8575 17.7901 29.8387 17.8333 29.7824C17.891 29.726 17.8045 29.6697 17.6459 29.6885C17.4873 29.6885 17.4441 29.7448 17.5594 29.8011Z" fill="white"/>
<path d="M18.1361 30.1767C18.237 30.233 18.3668 30.2142 18.41 30.1579C18.4677 30.1016 18.3812 30.0452 18.2226 30.064C18.064 30.064 18.0208 30.1203 18.1361 30.1767Z" fill="white"/>
<path d="M14.9356 31.1907C15.1086 31.4348 15.2239 31.4912 15.2528 31.3597C15.296 31.2283 15.2239 31.0593 15.123 30.9654C14.7626 30.6649 14.6617 30.7964 14.9356 31.1907Z" fill="white"/>
<path d="M16.7233 31.4724C16.7233 31.6226 16.7953 31.6977 16.8674 31.6414C16.9539 31.5851 17.0116 31.4536 17.0116 31.3409C17.0116 31.247 16.9539 31.1719 16.8674 31.1719C16.7953 31.1719 16.7233 31.3034 16.7233 31.4724Z" fill="white"/>
<path d="M16.5791 32.2048C16.5791 32.3738 16.6512 32.4864 16.7377 32.4489C16.8242 32.4113 16.8963 32.2987 16.8963 32.2048C16.8963 32.1109 16.8242 31.9982 16.7377 31.9606C16.6512 31.9231 16.5791 32.0358 16.5791 32.2048Z" fill="white"/>
<path d="M19.6067 34.552C19.6067 34.6459 19.6788 34.7398 19.7509 34.7398C19.8374 34.7398 19.895 34.6459 19.895 34.552C19.895 34.4394 19.8374 34.3642 19.7509 34.3642C19.6788 34.3642 19.6067 34.4394 19.6067 34.552Z" fill="white"/>
<path d="M12.3551 34.6835C12.11 34.9839 12.283 35.3032 12.6867 35.3032C13.148 35.3032 13.2201 35.1342 12.9462 34.7774C12.7587 34.5333 12.4992 34.4769 12.3551 34.6835Z" fill="white"/>
<path d="M14.0995 35.2468C14.186 35.2844 14.359 35.2844 14.4599 35.2468C14.5464 35.1905 14.4743 35.1529 14.2725 35.1529C14.0707 35.1529 13.9986 35.1905 14.0995 35.2468Z" fill="white"/>
<path d="M13.3354 35.6787C13.3786 35.7726 13.4507 35.8665 13.494 35.8665C13.5228 35.8665 13.5516 35.7726 13.5516 35.6787C13.5516 35.5661 13.4796 35.491 13.3931 35.491C13.321 35.491 13.2921 35.5661 13.3354 35.6787Z" fill="white"/>
<path d="M18.1938 35.8853C18.2226 35.9979 18.3091 36.0731 18.3812 36.0731C18.4533 36.0731 18.5398 35.9979 18.5686 35.8853C18.5975 35.7726 18.511 35.6787 18.3812 35.6787C18.2515 35.6787 18.165 35.7726 18.1938 35.8853Z" fill="white"/>
<path d="M13.6958 36.336C13.6958 36.4862 13.7679 36.6176 13.84 36.6176C13.9265 36.6176 13.9841 36.4862 13.9841 36.336C13.9841 36.1857 13.9265 36.0543 13.84 36.0543C13.7679 36.0543 13.6958 36.1857 13.6958 36.336Z" fill="white"/>
<path d="M29.4821 38.5143C29.4244 38.6081 29.4821 38.8523 29.6118 39.04C29.7416 39.2278 29.8425 39.4532 29.8425 39.5283C29.8425 39.6222 30.1308 40.0916 30.4624 40.5611C30.9814 41.2559 31.1256 41.6127 31.2697 42.5328C31.4427 43.6407 31.5725 44.129 31.9329 45.0679C32.0338 45.3308 32.1924 46.2885 32.2933 47.2274C32.3942 48.1475 32.5384 48.9925 32.5961 49.0864C32.7835 49.3493 32.7547 55.7152 32.5817 55.8654C32.4087 55.9968 32.4087 57.1986 32.5672 57.7432C32.6393 57.9686 32.6249 58.2127 32.5384 58.3629C32.4375 58.5319 32.4375 58.6634 32.5528 58.8136C32.7691 59.0953 32.7979 65.0855 32.5817 65.2545C32.3942 65.4048 32.3942 66.6629 32.5817 67.0385C32.6537 67.2075 32.6537 67.3953 32.5672 67.5455C32.4663 67.6957 32.4663 67.8835 32.5817 68.1464C32.6826 68.4281 32.697 68.6534 32.5817 68.8975C32.4087 69.3294 32.4231 70.7566 32.6105 70.9068C32.6682 70.9631 32.7258 71.5453 32.7258 72.2025C32.7258 73.1977 32.7691 73.4419 32.9997 73.6109C33.3602 73.855 33.389 73.855 33.6485 73.4982C33.9801 73.0851 33.9368 72.3527 33.5908 72.2025C33.3457 72.0898 33.3025 71.9208 33.3025 70.7941C33.3025 70.0805 33.2448 69.2919 33.1583 69.029C33.0718 68.7285 33.0718 68.5219 33.1583 68.4468C33.2448 68.3717 33.2448 68.1839 33.1439 67.9586C33.0286 67.6581 33.0574 67.3953 33.2881 66.7568C33.5187 66.1183 33.5476 65.8179 33.4467 65.3296C33.2737 64.5785 33.2592 63.2077 33.4034 63.0199C33.5476 62.8321 33.5764 60.5787 33.4322 60.4661C33.3746 60.4097 33.2592 59.8652 33.1872 59.2643C33.0718 58.3817 33.1007 58.0061 33.3025 57.2925C33.4611 56.748 33.5043 56.2597 33.4322 55.9593C33.2304 55.0579 33.2881 53.8561 33.562 53.4618C33.735 53.1801 33.7638 53.0674 33.6341 53.0111C33.4178 52.9172 33.389 51.9032 33.5764 51.7342C33.6629 51.6778 33.6197 51.3774 33.4899 51.0206C33.3602 50.7014 33.2016 50.2695 33.1295 50.1005C33.0718 49.9127 33.0142 49.4244 33.0142 49.0113C33.0142 48.5982 32.9421 48.0912 32.8412 47.9034C32.7547 47.7156 32.7258 47.4152 32.7835 47.2274C32.8556 46.9645 32.9132 46.9457 33.0862 47.1335C33.2737 47.34 33.3025 47.2649 33.3025 46.6828C33.3025 45.9505 32.9853 45.3308 32.7258 45.5373C32.6393 45.5937 32.5384 45.5186 32.4807 45.3496C32.4375 45.1618 32.4807 44.9552 32.5817 44.8801C32.697 44.7862 32.7114 44.7111 32.5961 44.6172C32.5096 44.5421 32.4375 44.129 32.4375 43.6971C32.4375 42.7394 32.3366 42.514 31.8176 42.345C31.3707 42.1948 31.3274 42.0258 31.6446 41.6878C31.8464 41.4624 31.8464 41.4061 31.6446 41.1244C31.5292 40.9554 31.4283 40.6738 31.4283 40.486C31.4283 39.2842 29.8569 37.688 29.4821 38.5143Z" fill="white"/>
<path d="M12.5137 38.7959C12.8597 39.1152 13.076 39.0588 12.903 38.702C12.8597 38.5894 12.6723 38.4955 12.4993 38.4955H12.1965L12.5137 38.7959Z" fill="white"/>
<path d="M17.0116 38.8711C17.0116 38.9649 17.0837 39.0588 17.1702 39.0588C17.2423 39.0588 17.2711 38.9649 17.2278 38.8711C17.1846 38.7584 17.1125 38.6833 17.0693 38.6833C17.0404 38.6833 17.0116 38.7584 17.0116 38.8711Z" fill="white"/>
<path d="M19.3184 38.8711C19.3184 38.9649 19.3904 39.0588 19.4625 39.0588C19.549 39.0588 19.6067 38.9649 19.6067 38.8711C19.6067 38.7584 19.549 38.6833 19.4625 38.6833C19.3904 38.6833 19.3184 38.7584 19.3184 38.8711Z" fill="white"/>
<path d="M11.3315 39.5283C11.418 39.8287 11.937 40.0916 12.0812 39.9226C12.1821 39.7912 11.6775 39.2654 11.4324 39.2466C11.3315 39.2466 11.2883 39.378 11.3315 39.5283Z" fill="white"/>
<path d="M17.9487 39.4344C18.0064 39.5471 18.1073 39.5846 18.1794 39.5283C18.3812 39.3593 18.3379 39.2466 18.0784 39.2466C17.9631 39.2466 17.9054 39.3405 17.9487 39.4344Z" fill="white"/>
<path d="M16.6513 40.5423C16.5215 40.824 16.7666 41.1995 16.9973 41.1057C17.1126 41.0493 17.0982 40.9179 16.9684 40.6738C16.8243 40.4109 16.7378 40.3733 16.6513 40.5423Z" fill="white"/>
<path d="M12.3983 42.1385C12.3983 42.3075 12.4704 42.4389 12.5425 42.4389C12.629 42.4389 12.6866 42.3638 12.6866 42.2699C12.6866 42.1572 12.629 42.0258 12.5425 41.9694C12.4704 41.9131 12.3983 41.9882 12.3983 42.1385Z" fill="white"/>
<path d="M11.9658 43.4717C11.9658 43.6219 12.0956 43.7534 12.2542 43.7534C12.6002 43.7534 12.6434 43.4717 12.3118 43.3027C11.9947 43.1337 11.9658 43.1525 11.9658 43.4717Z" fill="white"/>
<path d="M11.317 44.6923C11.2738 44.805 11.3459 44.9364 11.49 44.9927C11.6342 45.0491 11.8649 45.1805 12.0234 45.2932C12.4415 45.5937 12.6289 45.1805 12.2397 44.805C11.8504 44.467 11.4468 44.4106 11.317 44.6923Z" fill="white"/>
<path d="M13.0471 44.8801C13.0903 44.974 13.1624 45.0679 13.2056 45.0679C13.2345 45.0679 13.2633 44.974 13.2633 44.8801C13.2633 44.7674 13.1912 44.6923 13.1047 44.6923C13.0326 44.6923 13.0038 44.7674 13.0471 44.8801Z" fill="white"/>
<path d="M15.7141 45.6312C15.7141 45.7251 15.815 45.819 15.9304 45.819C16.0457 45.819 16.1466 45.7251 16.1466 45.6312C16.1466 45.5185 16.0457 45.4434 15.9304 45.4434C15.815 45.4434 15.7141 45.5185 15.7141 45.6312Z" fill="white"/>
<path d="M12.3983 46.1007C12.3983 46.2509 12.4704 46.3824 12.5425 46.3824C12.629 46.3824 12.6866 46.2509 12.6866 46.1007C12.6866 45.9505 12.629 45.819 12.5425 45.819C12.4704 45.819 12.3983 45.9505 12.3983 46.1007Z" fill="white"/>
<path d="M12.6866 47.4152C12.6866 47.7156 13.0759 48.0161 13.2201 47.8095C13.321 47.6781 12.9894 47.1335 12.8164 47.1335C12.7443 47.1335 12.6866 47.2649 12.6866 47.4152Z" fill="white"/>
<path d="M14.3445 47.3213C14.3878 47.4151 14.4599 47.509 14.5031 47.509C14.532 47.509 14.5608 47.4151 14.5608 47.3213C14.5608 47.2086 14.4887 47.1335 14.4022 47.1335C14.3301 47.1335 14.3013 47.2086 14.3445 47.3213Z" fill="white"/>
<path d="M33.4611 48.7484C33.4611 48.955 33.5046 49.0113 33.5481 48.8611C33.5917 48.7296 33.5772 48.5606 33.5336 48.5043C33.4901 48.4292 33.4466 48.5418 33.4611 48.7484Z" fill="white"/>
<path d="M17.1558 49.0113C17.1558 49.1052 17.2134 49.1991 17.2855 49.1991C17.372 49.1991 17.4729 49.1052 17.5162 49.0113C17.5594 48.8986 17.5018 48.8235 17.3864 48.8235C17.2567 48.8235 17.1558 48.8986 17.1558 49.0113Z" fill="white"/>
<path d="M66.7203 49.0864C66.259 49.1803 65.8842 49.3305 65.8842 49.4056C65.8842 49.4995 66.0427 49.7061 66.2446 49.8751L66.605 50.1943L66.5762 54.5133L66.5329 58.8511L66.1437 59.1516C65.7832 59.3957 65.6967 59.3957 65.3507 59.1516L64.9471 58.8511L64.9038 56.1095C64.875 54.119 64.8173 53.3491 64.6876 53.274C64.4857 53.1801 63.0008 53.443 62.8855 53.612C62.8278 53.6683 62.9864 53.9124 63.2171 54.1566L63.6496 54.6072L63.6207 56.6165C63.6063 58.2127 63.5487 58.7009 63.3468 58.9826C63.2171 59.1704 63.0152 59.3394 62.8999 59.3394C62.7846 59.3394 62.7413 59.4332 62.7846 59.5271C62.8855 59.7337 71.5355 59.79 71.6941 59.5835C71.7517 59.5271 71.5932 59.3206 71.3625 59.1328L70.93 58.776V54.0439C70.93 51.4337 70.8723 49.1991 70.8147 49.0864C70.6993 48.8423 68.9117 49.1615 68.9117 49.4244C68.9117 49.4995 69.0702 49.7061 69.2721 49.8751L69.6325 50.1943L69.6037 54.5133L69.5604 58.8511L69.1856 59.1328C68.8684 59.3581 68.7675 59.3581 68.3927 59.1328L67.9746 58.8699L67.9313 53.95C67.9025 50.2694 67.8592 49.0301 67.7151 48.9737C67.6286 48.9362 67.1672 48.9925 66.7203 49.0864Z" fill="white"/>
<path d="M110.114 49.0864C109.653 49.1803 109.278 49.3118 109.278 49.3869C109.278 49.462 109.437 49.6685 109.639 49.8375L109.999 50.138V54.4382C109.999 58.3441 109.97 58.7385 109.74 59.0201C109.595 59.2079 109.379 59.3394 109.264 59.3394C109.091 59.3394 109.105 59.3769 109.278 59.5271C109.523 59.7337 111.917 59.79 112.061 59.5835C112.118 59.5271 111.96 59.3206 111.729 59.1328L111.297 58.776V53.9124C111.297 50.1943 111.253 49.0301 111.124 48.9737C111.023 48.9362 110.561 48.9925 110.114 49.0864Z" fill="white"/>
<path d="M138.616 49.124C138.14 49.2366 137.722 49.3493 137.679 49.3681C137.636 49.3869 137.809 49.5559 138.054 49.7437C138.357 49.9878 138.53 50.307 138.602 50.7014C138.746 51.659 138.703 57.9498 138.544 58.4756C138.472 58.7572 138.241 59.0577 138.054 59.1891C137.852 59.3018 137.722 59.4708 137.766 59.5459C137.852 59.7337 143.489 59.7713 143.633 59.5835C143.691 59.5271 143.532 59.3206 143.302 59.1328L142.869 58.776V53.9124C142.869 50.2882 142.826 49.0301 142.696 48.9738C142.538 48.8986 141.327 49.124 140.851 49.3118C140.707 49.3869 140.779 49.5183 141.11 49.8L141.572 50.1756L141.543 54.5133L141.5 58.8511L141.11 59.1516C140.75 59.3957 140.663 59.3957 140.317 59.1516L139.914 58.8511L139.87 54.0439C139.842 50.4948 139.784 49.1991 139.654 49.0676C139.553 48.955 139.15 48.9738 138.616 49.124Z" fill="white"/>
<path d="M54.0624 49.3493C54.0624 49.4432 54.2787 49.6498 54.5526 49.8C54.9419 50.0441 55.1437 50.4197 55.5762 51.5839C56.1961 53.274 56.0952 52.9172 57.2485 56.7667C57.7387 58.4005 58.2144 59.6962 58.3009 59.6586C58.3874 59.621 58.6037 59.1891 58.7911 58.7009C59.0939 57.8559 59.1083 57.762 58.892 57.4615C58.6037 57.0484 56.8016 51.1333 56.8016 50.6075C56.8016 50.3821 56.9746 50.0817 57.2341 49.8939C57.4792 49.7061 57.6666 49.4808 57.6666 49.3681C57.6666 49.2742 56.9025 49.1991 55.8645 49.1991C54.8698 49.1991 54.0624 49.2742 54.0624 49.3493Z" fill="white"/>
<path d="M60.1175 49.3493C60.1175 49.4432 60.3193 49.7061 60.5644 49.9315C60.9825 50.3258 61.0113 50.4197 60.9392 51.2459C60.896 51.7154 60.896 51.9595 60.9248 51.7717C60.9681 51.6027 61.0546 51.4525 61.0978 51.4525C61.1555 51.4525 61.3141 51.1708 61.4582 50.8328C61.6024 50.5136 61.9052 50.0817 62.1358 49.9127C62.8567 49.3681 62.6548 49.1991 61.3429 49.1991C60.6653 49.1991 60.1175 49.2742 60.1175 49.3493Z" fill="white"/>
<path d="M63.8947 49.4244C63.4622 49.9878 63.9235 51.1708 64.4137 50.7765C64.9038 50.3633 64.9759 49.9502 64.6011 49.5559C64.2118 49.1428 64.1253 49.124 63.8947 49.4244Z" fill="white"/>
<path d="M127.054 49.4244C126.766 49.9127 126.751 50.2882 126.996 50.5887C127.141 50.7577 127.299 50.8891 127.371 50.8891C127.631 50.8891 127.991 50.2694 127.919 49.9878C127.833 49.6498 127.458 49.1991 127.285 49.1991C127.241 49.1991 127.126 49.3118 127.054 49.4244Z" fill="white"/>
<path d="M135.185 49.5371C134.868 49.9878 134.882 50.1943 135.214 50.5887C135.43 50.8516 135.56 50.8704 135.791 50.7014C136.18 50.4385 136.194 49.6498 135.819 49.3869C135.459 49.1428 135.459 49.1428 135.185 49.5371Z" fill="white"/>
<path d="M14.0563 49.7624C13.9986 49.8751 14.186 49.9502 14.5032 49.9502C15.1087 49.9502 15.1087 49.8751 14.532 49.6873C14.3158 49.631 14.0995 49.6498 14.0563 49.7624Z" fill="white"/>
<path d="M16.3628 49.7624C16.3196 49.8563 16.4061 49.9502 16.5791 49.9502C16.7521 49.9502 16.8386 49.8563 16.7953 49.7624C16.7521 49.6498 16.6512 49.5747 16.5791 49.5747C16.507 49.5747 16.4061 49.6498 16.3628 49.7624Z" fill="white"/>
<path d="M13.3354 50.3258C13.3931 50.4385 13.494 50.476 13.5661 50.4197C13.7679 50.2507 13.7247 50.138 13.4652 50.138C13.3498 50.138 13.2922 50.2319 13.3354 50.3258Z" fill="white"/>
<path d="M13.6237 51.4337C13.5228 51.6591 13.7967 51.8844 13.9841 51.7342C14.1427 51.6027 14.0418 51.2647 13.84 51.2647C13.7679 51.2647 13.6814 51.3398 13.6237 51.4337Z" fill="white"/>
<path d="M16.3628 51.4525C16.3196 51.5464 16.4061 51.6403 16.5791 51.6403C16.7521 51.6403 16.8386 51.5464 16.7953 51.4525C16.7521 51.3398 16.6512 51.2647 16.5791 51.2647C16.507 51.2647 16.4061 51.3398 16.3628 51.4525Z" fill="white"/>
<path d="M73.9287 53.3115C73.3376 53.5744 72.6744 54.2317 72.4437 54.8326C72.141 55.6025 72.1554 57.6306 72.4726 58.2127C73.179 59.5459 74.2314 60.0154 75.3992 59.5272L75.7596 59.3769L75.3559 59.3582C74.6062 59.3206 73.9431 58.776 73.6547 57.9498C73.3232 56.9733 73.2943 55.6776 73.6115 55.5086C73.7412 55.4523 74.4765 55.3959 75.2694 55.3959C76.1632 55.3959 76.6967 55.3208 76.6967 55.2082C76.6967 54.795 76.2642 53.9312 75.9182 53.6308C75.4712 53.2552 74.4621 53.105 73.9287 53.3115ZM75.5433 54.2692C75.7019 54.5509 75.7884 54.8326 75.7307 54.9077C75.5866 55.0767 73.5538 55.0392 73.4673 54.8514C73.4241 54.7575 73.5106 54.4758 73.6692 54.2129C74.1593 53.4054 75.082 53.4242 75.5433 54.2692Z" fill="white"/>
<path d="M78.2392 53.3491C77.85 53.4242 77.504 53.5369 77.4607 53.5932C77.4175 53.6308 77.5616 53.8749 77.7635 54.1002C78.1239 54.5133 78.1383 54.6072 78.1383 56.6165C78.1383 58.4192 78.095 58.7572 77.8788 59.0201C77.7346 59.2079 77.5184 59.3394 77.403 59.3394C77.23 59.3394 77.2445 59.3769 77.4175 59.5271C77.6625 59.7337 80.0557 59.79 80.1999 59.5835C80.2575 59.5271 80.099 59.3206 79.8683 59.1328L79.4358 58.776V56.147C79.4358 53.1425 79.4214 53.105 78.2392 53.3491Z" fill="white"/>
<path d="M80.8775 53.2928C80.8775 53.3866 81.0793 53.6308 81.31 53.8561L81.7425 54.288V56.6353C81.7425 58.945 81.7425 58.9826 81.3821 59.1891C81.1947 59.3018 81.0649 59.4708 81.1082 59.5459C81.1947 59.7337 83.6599 59.7713 83.8041 59.5835C83.8618 59.5271 83.7032 59.3206 83.4725 59.1328L83.04 58.776V56.6165C83.04 54.119 82.8958 53.6495 82.0453 53.3303C81.4109 53.105 80.8775 53.0862 80.8775 53.2928Z" fill="white"/>
<path d="M85.7647 53.3115C84.6114 53.7998 84.0491 54.8701 84.0491 56.6165C84.0491 57.7808 84.078 57.8559 84.6691 58.6634C85.3611 59.621 86.0242 59.8652 86.9757 59.5647C87.4947 59.4145 87.5236 59.3769 87.1776 59.3582C86.5432 59.3206 85.8656 58.8324 85.5917 58.2127C85.2313 57.4428 85.1016 55.7903 85.3611 55.5649C85.4764 55.471 86.2261 55.3959 87.0478 55.3959C87.9705 55.3959 88.5183 55.3208 88.5183 55.2082C88.5183 54.795 88.0858 53.9312 87.7398 53.6308C87.2929 53.2552 86.2837 53.0862 85.7647 53.3115ZM87.3361 54.2129C87.5091 54.457 87.6245 54.7575 87.5812 54.8514C87.5236 54.9453 87.0046 55.0204 86.4135 55.0204C85.4764 55.0204 85.3466 54.9828 85.3466 54.6824C85.3466 54.2692 85.7215 53.781 86.1396 53.6496C86.5865 53.5181 86.9757 53.6871 87.3361 54.2129Z" fill="white"/>
<path d="M89.3256 53.2928C89.2824 53.4054 89.3977 53.612 89.5995 53.781C89.9455 54.0815 89.96 54.1566 89.96 56.1471C89.96 57.3301 90.032 58.4005 90.133 58.6821C90.4213 59.5272 91.5458 60.0154 92.1225 59.5272C92.3099 59.3769 92.2955 59.3394 92.0792 59.3394C91.9495 59.3394 91.7188 59.1704 91.5746 58.9638C91.3728 58.6446 91.3151 58.0812 91.2575 55.903L91.1854 53.2364L90.2915 53.1801C89.8014 53.1425 89.3689 53.1989 89.3256 53.2928Z" fill="white"/>
<path d="M92.6992 53.4054C92.6992 53.5557 92.8289 53.7434 93.0019 53.7998C93.2902 53.9312 93.2902 54.0439 93.2614 56.5977C93.247 58.0624 93.2758 59.3581 93.3335 59.4896C93.4632 59.7713 95.2365 59.79 95.3662 59.5272C95.4095 59.4145 95.3951 59.3394 95.3374 59.3394C95.2653 59.3394 95.0779 59.2267 94.9193 59.0765C94.6742 58.8324 94.631 58.4943 94.5733 56.0156L94.5012 53.2364L93.6074 53.1801C92.8866 53.1425 92.6992 53.1801 92.6992 53.4054Z" fill="white"/>
<path d="M95.6546 53.3303C95.5969 53.443 95.6834 53.6683 95.842 53.8561C95.9862 54.0251 96.534 55.4147 97.0242 56.9357C97.5287 58.4756 97.9757 59.7149 98.0189 59.7149C98.2352 59.6962 98.437 59.3769 98.5812 58.7948C98.7974 58.0061 98.7974 58.0624 98.5235 57.9873C98.3072 57.931 98.0622 57.2174 97.4855 54.964C97.2692 54.1002 97.2692 54.0439 97.4999 53.8749C97.6297 53.7622 97.745 53.5557 97.745 53.4242C97.745 53.1989 97.5287 53.1425 96.7502 53.1425C96.188 53.1425 95.6978 53.2364 95.6546 53.3303Z" fill="white"/>
<path d="M99.3308 53.4242C99.3308 53.5932 99.4317 53.7622 99.5471 53.8186C99.6624 53.8937 99.7633 54.1002 99.7633 54.288C99.7633 54.4758 99.8066 54.6448 99.8498 54.6448C99.9796 54.6448 100.772 53.4993 100.772 53.3115C100.772 53.2177 100.455 53.1425 100.052 53.1425C99.5038 53.1425 99.3308 53.2177 99.3308 53.4242Z" fill="white"/>
<path d="M102.603 53.4054C101.94 53.7247 101.724 53.95 101.364 54.7199C100.181 57.2174 101.681 60.0905 103.901 59.6211L104.593 59.452L104.016 59.3394C103.699 59.283 103.295 59.0953 103.108 58.945C102.618 58.5319 102.185 57.255 102.243 56.2973L102.286 55.4898L103.872 55.3959C105.573 55.302 105.588 55.2833 105.213 54.3256C104.838 53.3679 103.598 52.9172 102.603 53.4054ZM104.276 54.0251C104.405 54.1941 104.521 54.4758 104.521 54.6824C104.521 54.9828 104.391 55.0204 103.367 55.0204C102.733 55.0204 102.214 54.9828 102.214 54.9265C102.214 54.6448 102.733 53.8373 102.993 53.6871C103.367 53.4993 103.944 53.6496 104.276 54.0251Z" fill="white"/>
<path d="M113.647 53.3303C113.055 53.5744 112.695 54.1941 112.897 54.6823C113.113 55.2081 113.517 55.0767 113.805 54.3631C114.108 53.6495 114.353 53.5181 114.93 53.7622C115.42 53.9688 115.708 54.8138 115.506 55.5274C115.42 55.8654 115.42 56.147 115.521 56.3536C115.723 56.7855 115.521 58.2878 115.175 58.8511C115.002 59.1328 114.728 59.3394 114.54 59.3394C113.733 59.3394 113.474 58.0437 114.108 57.1611C114.569 56.5038 114.569 56.4663 114.007 56.6165C112.407 57.0672 111.974 58.6258 113.185 59.452C113.719 59.8088 114.713 59.7337 115.391 59.2642C115.78 59.0013 115.838 59.0201 116.169 59.3581C116.559 59.7337 117.15 59.8276 117.496 59.5271C117.683 59.3769 117.683 59.3394 117.467 59.3394C116.905 59.3394 116.775 58.8323 116.775 56.8043C116.775 54.6448 116.66 54.0439 116.155 53.6308C115.737 53.2552 114.266 53.0862 113.647 53.3303Z" fill="white"/>
<path d="M120.884 53.3491C120.826 53.4618 120.884 53.6495 120.999 53.7622C121.129 53.8937 121.489 54.795 121.835 55.7715C123.291 60.0717 123.248 59.9778 123.608 59.3018C123.854 58.8511 123.926 58.0249 123.709 58.0249C123.565 58.0249 122.542 54.7011 122.542 54.2129C122.542 54.0251 122.643 53.8373 122.758 53.781C122.873 53.7059 122.974 53.5556 122.974 53.4054C122.974 53.1989 122.729 53.1425 121.979 53.1425C121.417 53.1425 120.927 53.2364 120.884 53.3491Z" fill="white"/>
<path d="M124.56 53.4054C124.56 53.5557 124.632 53.7434 124.704 53.7998C124.791 53.8561 124.848 54.119 124.848 54.3819C124.848 54.9452 124.949 54.9452 125.31 54.3631C125.627 53.8185 125.944 53.7622 126.405 54.1941C126.708 54.457 126.722 54.626 126.722 56.6353V58.776L126.29 59.1328C126.059 59.3206 125.901 59.5271 125.958 59.5835C126.103 59.7713 128.741 59.7337 128.741 59.5459C128.741 59.452 128.582 59.2455 128.38 59.0765C128.02 58.776 128.02 58.7385 128.02 56.1658C128.02 54.3068 127.962 53.5181 127.847 53.3679C127.732 53.2552 127.386 53.2364 126.982 53.3115C126.607 53.3866 126.218 53.3866 126.117 53.3115C126.016 53.2176 125.627 53.1425 125.252 53.1425C124.747 53.1425 124.56 53.2176 124.56 53.4054Z" fill="white"/>
<path d="M130.86 53.4054C129.332 54.1378 128.726 56.3348 129.534 58.1563C130.125 59.452 131.321 60.0154 132.489 59.5272C132.821 59.3957 132.806 59.3769 132.345 59.3581C131.206 59.3206 130.413 58.0249 130.5 56.3348L130.543 55.4898L132.129 55.3959C133.83 55.302 133.844 55.2833 133.469 54.3256C133.095 53.3491 131.855 52.9172 130.86 53.4054ZM132.532 54.119C133.023 54.8701 132.864 55.0204 131.624 55.0204C130.99 55.0204 130.471 54.964 130.471 54.8701C130.471 54.5697 130.947 53.8561 131.249 53.7059C131.667 53.4993 132.23 53.6683 132.532 54.119Z" fill="white"/>
<path d="M135.127 53.3115C134.334 53.4805 134.248 53.612 134.623 54.1378C134.911 54.5321 134.94 54.7762 134.94 56.6728V58.776L134.507 59.1328C134.277 59.3206 134.118 59.5271 134.176 59.5835C134.306 59.7525 136.958 59.7525 136.958 59.5835C136.958 59.5084 136.785 59.2643 136.569 59.0389C136.165 58.6258 136.165 58.607 136.137 56.0532C136.108 53.5932 136.05 53.1238 135.834 53.1613C135.776 53.1801 135.459 53.2552 135.127 53.3115Z" fill="white"/>
<path d="M145.709 53.4054C145.046 53.7247 144.83 53.95 144.469 54.7199C143.287 57.2174 144.787 60.0905 147.007 59.6211L147.699 59.452L147.122 59.3394C146.805 59.283 146.401 59.0953 146.214 58.945C145.724 58.5319 145.291 57.255 145.349 56.2973L145.392 55.4898L146.978 55.3959C148.679 55.302 148.693 55.2833 148.319 54.3256C147.944 53.3679 146.704 52.9172 145.709 53.4054ZM147.382 54.0251C147.511 54.1941 147.627 54.4758 147.627 54.6824C147.627 54.9828 147.497 55.0204 146.473 55.0204C145.839 55.0204 145.32 54.964 145.32 54.8701C145.32 54.5885 145.796 53.8561 146.098 53.7059C146.473 53.4993 147.036 53.6308 147.382 54.0251Z" fill="white"/>
<path d="M20.933 53.4993C20.9618 53.6308 21.0339 53.7247 21.0916 53.7247C21.2646 53.7059 21.2213 53.443 21.0483 53.3491C20.9474 53.3115 20.8897 53.3867 20.933 53.4993Z" fill="white"/>
<path d="M60.1463 54.0815C60.1463 54.3444 60.1753 54.4382 60.2188 54.3068C60.2479 54.1941 60.2479 53.9688 60.2188 53.8373C60.1753 53.7247 60.1463 53.8186 60.1463 54.0815Z" fill="white"/>
<path d="M156.132 54.1754C155.714 54.7575 155.253 54.7763 154.186 54.2505C153.725 54.0251 153.235 53.9125 153.033 53.9688C152.6 54.119 151.807 54.9828 151.807 55.3208C151.807 55.6964 151.923 55.6588 152.413 55.1143C152.932 54.5509 152.975 54.5509 153.97 55.0204C155.123 55.5649 155.599 55.5086 156.248 54.7575C156.623 54.288 156.738 54.0439 156.623 53.9125C156.522 53.7622 156.378 53.8373 156.132 54.1754Z" fill="white"/>
<path d="M22.6342 54.1753C22.6342 54.3256 22.6918 54.457 22.7639 54.457C22.836 54.457 22.9657 54.3256 23.0667 54.1753C23.2108 53.9312 23.1964 53.8937 22.9369 53.8937C22.7639 53.8937 22.6342 54.0063 22.6342 54.1753Z" fill="white"/>
<path d="M24.9408 54.5133C24.9408 54.7762 25.0128 55.0579 25.0849 55.1142C25.1714 55.1706 25.2291 55.4335 25.2291 55.6776C25.2291 55.9217 25.1714 56.1846 25.0849 56.2409C24.8687 56.4099 24.8975 57.7056 25.1282 57.6117C25.4165 57.4803 25.4453 54.5884 25.157 54.2692C24.9696 54.0627 24.9408 54.1002 24.9408 54.5133Z" fill="white"/>
<path d="M52.6064 54.9453C52.318 55.3396 52.1595 55.4147 51.6837 55.3396C51.3665 55.302 50.8043 55.1143 50.4295 54.9265C49.7807 54.5885 49.723 54.5885 49.2473 54.8889C48.7139 55.2081 48.2237 55.9781 48.3246 56.3724C48.3679 56.5226 48.4688 56.4851 48.6706 56.2222C49.3915 55.3208 49.3482 55.3208 50.6169 55.8654C51.7846 56.3724 51.799 56.3724 52.246 56.0532C52.7217 55.6776 53.1975 55.0579 53.1975 54.8138C53.1975 54.4382 52.9235 54.5134 52.6064 54.9453Z" fill="white"/>
<path d="M16.0024 55.0016C16.0024 55.2269 16.0745 55.3959 16.1466 55.3959C16.2331 55.3959 16.2908 55.2833 16.2908 55.133C16.2908 54.9828 16.2331 54.795 16.1466 54.7387C16.0745 54.6824 16.0024 54.795 16.0024 55.0016Z" fill="white"/>
<path d="M59.858 55.0204C59.858 55.2833 59.887 55.3771 59.9305 55.2457C59.9595 55.133 59.9595 54.9077 59.9305 54.7762C59.887 54.6636 59.858 54.7575 59.858 55.0204Z" fill="white"/>
<path d="M22.4178 55.2082C22.3602 55.3208 22.5187 55.3959 22.7782 55.3959C23.0377 55.3959 23.1963 55.3208 23.1387 55.2082C23.0954 55.0955 22.9224 55.0204 22.7782 55.0204C22.6341 55.0204 22.4611 55.0955 22.4178 55.2082Z" fill="white"/>
<path d="M59.4687 55.9593C59.4255 56.0532 59.4543 56.1471 59.5264 56.1471C59.6129 56.1471 59.685 56.0532 59.685 55.9593C59.685 55.8466 59.6562 55.7715 59.6273 55.7715C59.5841 55.7715 59.512 55.8466 59.4687 55.9593Z" fill="white"/>
<path d="M19.2029 56.917C19.2318 57.0296 19.3183 57.1047 19.3904 57.1047C19.4624 57.1047 19.5489 57.0296 19.5778 56.917C19.6066 56.8043 19.5201 56.7104 19.3904 56.7104C19.2606 56.7104 19.1741 56.8043 19.2029 56.917Z" fill="white"/>
<path d="M18.5254 57.762C18.165 58.2314 18.4389 58.3817 19.3904 58.2314C20.0103 58.1375 20.1689 58.0436 19.9671 57.9498C19.8085 57.8746 19.5634 57.7244 19.4337 57.6305C19.0588 57.3864 18.7993 57.424 18.5254 57.762Z" fill="white"/>
<path d="M24.9696 58.3253C24.9552 58.6634 24.7966 59.0765 24.5803 59.3394C24.3208 59.6586 24.2199 59.9778 24.2199 60.5036C24.2199 61.1609 24.1911 61.2172 23.9027 61.1233C23.6432 61.0482 23.5279 61.1233 23.3982 61.4989C23.3117 61.7618 23.2972 62.0059 23.3693 62.081C23.5423 62.2124 23.5423 62.9072 23.3549 62.9072C23.2828 62.9072 23.1242 62.6068 22.9945 62.2312C22.6917 61.2735 22.5332 61.574 22.6341 62.8885C22.6773 63.5269 22.6629 64.1654 22.5908 64.3344C22.4467 64.6536 22.5043 67.1324 22.6485 67.3201C22.7927 67.4891 23.2107 67.2075 23.2107 66.9446C23.2107 66.8131 23.1675 66.6629 23.1098 66.6066C23.0377 66.569 23.081 66.569 23.1963 66.6066C23.3693 66.6629 23.9316 66.0057 23.9316 65.724C23.9316 65.6677 24.0613 65.4235 24.2199 65.1982C24.3929 64.9729 24.4506 64.7851 24.3641 64.7851C24.292 64.7851 24.2199 64.5973 24.2199 64.3532C24.2343 63.9588 24.2343 63.9588 24.4362 64.2968C24.5515 64.5034 24.6668 64.6348 24.6957 64.5785C24.811 64.4095 25.0849 63.2077 25.0849 62.8509C25.0849 62.5505 25.0417 62.5317 24.8687 62.7195C24.6957 62.9072 24.6524 62.9072 24.6524 62.6443C24.6524 62.4753 24.7101 62.3439 24.7966 62.3439C25.0849 62.3439 25.2147 61.6679 25.0561 60.9731C24.9552 60.5224 24.9407 60.1281 25.0272 59.8652C25.0993 59.621 25.1282 59.0577 25.0705 58.5882C24.9984 57.931 24.984 57.8747 24.9696 58.3253ZM23.6 64.8977C23.5567 64.9541 23.427 64.9729 23.3261 64.9165C23.2107 64.8602 23.254 64.8039 23.4126 64.8039C23.5712 64.7851 23.6577 64.8414 23.6 64.8977Z" fill="white"/>
<path d="M76.2641 58.2502C76.2641 58.3629 76.1632 58.6258 76.019 58.8136C75.8893 59.0014 75.8605 59.1516 75.947 59.1516C76.0335 59.1516 76.2353 58.8887 76.4083 58.5882C76.6678 58.1188 76.6822 58.0249 76.4948 58.0249C76.365 58.0249 76.2641 58.1188 76.2641 58.2502Z" fill="white"/>
<path d="M87.9561 58.5882C87.7831 58.9075 87.711 59.1516 87.7831 59.1516C87.9561 59.1516 88.4462 58.2502 88.3453 58.1188C88.3165 58.0624 88.1435 58.2878 87.9561 58.5882Z" fill="white"/>
<path d="M105.097 58.2502C105.097 58.3629 104.997 58.6258 104.852 58.8136C104.723 59.0014 104.679 59.1516 104.751 59.1516C104.924 59.1516 105.386 58.4568 105.386 58.2127C105.386 58.1 105.328 58.0249 105.242 58.0249C105.17 58.0249 105.097 58.1188 105.097 58.2502Z" fill="white"/>
<path d="M148.203 58.2502C148.203 58.3629 148.102 58.6258 147.958 58.8136C147.828 59.0014 147.785 59.1516 147.857 59.1516C148.03 59.1516 148.492 58.4568 148.492 58.2127C148.492 58.1 148.434 58.0249 148.347 58.0249C148.275 58.0249 148.203 58.1188 148.203 58.2502Z" fill="white"/>
<path d="M133.066 58.7572C132.965 59.0389 132.965 59.1516 133.066 59.1516C133.239 59.1516 133.426 58.6258 133.311 58.4756C133.268 58.4192 133.167 58.5507 133.066 58.7572Z" fill="white"/>
<path d="M22.2737 58.776C22.317 58.8699 22.3891 58.9638 22.4323 58.9638C22.4612 58.9638 22.49 58.8699 22.49 58.776C22.49 58.6634 22.4179 58.5882 22.3314 58.5882C22.2593 58.5882 22.2305 58.6634 22.2737 58.776Z" fill="white"/>
<path d="M19.1742 59.1516C19.1742 59.2455 19.2319 59.3394 19.3039 59.3394C19.3904 59.3394 19.4914 59.2455 19.5346 59.1516C19.5779 59.0389 19.5202 58.9638 19.4049 58.9638C19.2751 58.9638 19.1742 59.0389 19.1742 59.1516Z" fill="white"/>
<path d="M20.2554 59.5272C20.2986 59.621 20.4284 59.7149 20.5437 59.7149C20.6591 59.7149 20.7888 59.621 20.8321 59.5272C20.8897 59.4145 20.76 59.3394 20.5437 59.3394C20.3275 59.3394 20.1977 59.4145 20.2554 59.5272Z" fill="white"/>
<path d="M21.625 59.5459C21.625 59.6398 21.6971 59.6774 21.7692 59.6211C21.8557 59.5647 21.9133 59.4708 21.9133 59.4145C21.9133 59.3769 21.8557 59.3394 21.7692 59.3394C21.6971 59.3394 21.625 59.4333 21.625 59.5459Z" fill="white"/>
<path d="M19.1742 62.3439C19.1742 62.4378 19.2751 62.5317 19.3904 62.5317C19.5058 62.5317 19.6067 62.4378 19.6067 62.3439C19.6067 62.2312 19.5058 62.1561 19.3904 62.1561C19.2751 62.1561 19.1742 62.2312 19.1742 62.3439Z" fill="white"/>
<path d="M20.3996 63.095C20.3563 63.1889 20.4428 63.2828 20.6158 63.2828C20.7888 63.2828 20.8753 63.1889 20.8321 63.095C20.7888 62.9824 20.6879 62.9072 20.6158 62.9072C20.5437 62.9072 20.4428 62.9824 20.3996 63.095Z" fill="white"/>
<path d="M14.9069 67.3577C14.6618 67.8835 14.8204 69.1041 15.1375 69.1041C15.4259 69.1041 15.6277 68.6158 15.4259 68.4468C15.3394 68.3717 15.2817 68.0337 15.2817 67.6769C15.2817 66.9821 15.1519 66.8694 14.9069 67.3577Z" fill="white"/>
<path d="M13.6958 69.8552C13.6958 69.9491 13.7967 70.043 13.9121 70.043C14.0274 70.043 14.1283 69.9491 14.1283 69.8552C14.1283 69.7425 14.0274 69.6674 13.9121 69.6674C13.7967 69.6674 13.6958 69.7425 13.6958 69.8552Z" fill="white"/>
</svg>
