<svg width="112" height="58" viewBox="0 0 112 58" fill="none" xmlns="http://www.w3.org/2000/svg">
<path d="M11.0609 13.0543C5.94549 13.9929 5.64261 14.6402 5.41825 26.9717C5.11536 40.0152 5.49677 42.4103 7.90863 43.9315C10.1634 45.388 22.6602 46.1108 31.1634 45.3125C40.0481 44.5141 39.891 44.8054 39.891 29.1402C39.891 14.5 39.7452 13.9929 34.5513 12.9788C30.5577 12.2559 15.0545 12.2559 11.0609 13.0543ZM23.4118 18.5565C24.0849 19.3549 24.1634 20.013 23.5577 20.8761C22.4247 22.6239 20.2484 22.8396 19.1154 21.3832C17.0064 18.6321 21.1458 15.9457 23.4118 18.5565ZM25.5881 26.0978C25.5881 27.5543 25.2179 28.2771 24.4663 28.2771C22.2003 28.2771 20.3269 31.0283 20.3269 34.362C20.3269 37.1239 20.024 37.8467 18.0609 39.1521L15.8061 40.6733V34.9446C15.8061 30.1652 16.109 28.8597 17.3878 27.263C19.1939 25.0837 21.2243 24.0696 23.9391 23.994C25.2852 23.9293 25.5881 24.2853 25.5881 26.0978ZM31.6122 26.5402C31.6122 29 31.5336 29.0755 29.2003 28.8597C25.1394 28.4929 25.2179 23.9293 29.3573 23.9293C31.4663 23.9293 31.6122 24.1451 31.6122 26.5402Z" fill="#33569C"/>
<path d="M49.3029 18.2005C48.5513 20.1533 49.2243 27.7701 50.2788 28.1261C50.8846 28.2772 51.1875 27.3278 51.1875 24.8679C51.2548 21.6745 51.3333 21.5342 52.3093 22.7641C53.4423 24.2098 55.6186 23.9293 55.8541 22.3326C55.8541 21.8255 56.1458 22.8397 56.3814 24.5766C56.6057 26.3891 57.2788 27.9103 57.8061 28.1261C58.4791 28.3527 58.7147 26.9717 58.7147 22.9152C58.7147 19.862 58.4118 17.4022 58.0304 17.4022C57.6602 17.4022 56.6057 18.4163 55.6186 19.6462L54.048 21.8255L51.9391 19.4304C50.2003 17.4777 49.673 17.2511 49.3029 18.2005Z" fill="#33569C"/>
<path d="M85.0544 18.9989C85.0544 20.369 84.673 20.6603 82.6426 20.6603C80.8365 20.6603 79.9391 21.1027 79.1089 22.5484C78.133 24.2853 78.133 24.6522 79.3333 26.3891C80.4663 28.0614 80.9935 28.2772 83.7756 28.0614L86.9391 27.7701V22.8397C86.9391 19.5059 86.6362 17.7582 86.0304 17.5424C85.4246 17.4022 85.0544 17.9092 85.0544 18.9989ZM84.9086 24.0696C85.0544 25.4505 84.7516 26.0978 83.5512 26.4647C80.758 27.3277 78.7275 24.5011 80.6907 22.6239C82.2724 21.1027 84.673 21.8902 84.9086 24.0696Z" fill="#33569C"/>
<path d="M88.8125 18.4918C88.8125 19.1391 89.1939 19.5707 89.6426 19.4304C90.0913 19.2902 90.4727 18.8478 90.4727 18.4918C90.4727 18.125 90.0913 17.6934 89.6426 17.5424C89.1939 17.4022 88.8125 17.8337 88.8125 18.4918Z" fill="#33569C"/>
<path d="M102.364 22.3326C102.364 24.6521 102.745 26.8962 103.272 27.4033C104.473 28.5684 107.109 28.5684 106.728 27.3277C106.503 26.8962 105.909 26.4646 105.303 26.4646C104.551 26.4646 104.17 25.2995 104.024 22.2571C103.721 16.8196 102.364 16.8951 102.364 22.3326Z" fill="#33569C"/>
<path d="M60.5881 22.0413C58.0304 25.7418 62.8541 30.0897 66.242 27.1875C67.891 25.7418 68.1939 22.4728 66.8365 21.1674C65.2548 19.6462 61.867 20.1533 60.5881 22.0413ZM66.0849 23.8538C66.4663 26.0223 65.3333 27.112 63.3029 26.4647C62.3269 26.1734 61.7211 25.375 61.7211 24.2853C61.7211 21.3832 65.7147 20.9516 66.0849 23.8538Z" fill="#33569C"/>
<path d="M69.2484 24.3609C69.2484 26.5402 69.6186 28.2772 70 28.2772C70.4487 28.2772 70.7516 27.1875 70.7516 25.8066C70.7516 20.9516 74.9695 20.3691 75.4183 25.1592C75.5753 26.6804 75.9455 27.7701 76.3942 27.5543C77.1458 27.1875 77.0785 21.8255 76.3269 21.1027C76.0913 20.8761 74.4423 20.6604 72.5577 20.5848L69.2484 20.4446V24.3609Z" fill="#33569C"/>
<path d="M93.0304 21.6745C90.2484 24.6521 92.5817 28.2016 97.3269 28.0614L100.109 27.9858V20.5848L97.1699 20.5201C95.2179 20.4446 93.8606 20.8114 93.0304 21.6745ZM97.9215 22.9152C98.6058 23.7027 98.6731 24.3608 98.0785 25.2347C97.0913 26.8207 94.8365 26.8207 93.8606 25.2995C92.0545 22.5483 95.7452 20.369 97.9215 22.9152Z" fill="#33569C"/>
<path d="M88.8125 24.6522C88.8125 26.6049 89.1939 28.2772 89.5753 28.2772C90.024 28.2772 90.3269 26.6049 90.3269 24.6522C90.3269 22.6239 90.024 21.0272 89.5753 21.0272C89.1939 21.0272 88.8125 22.6239 88.8125 24.6522Z" fill="#33569C"/>
<path d="M49.3814 30.888C49.1458 31.5353 48.9214 33.7902 48.9214 35.9587C48.9214 38.9364 49.2243 39.875 50.0545 39.875C50.6602 39.875 51.1875 39.2277 51.1875 38.4293C51.1875 37.3397 51.7147 36.9728 53.0609 36.9728C54.1154 36.9728 55.3269 37.6309 55.8541 38.4293C56.3814 39.2277 57.4247 39.875 58.2548 39.875C59.6122 39.875 59.6907 39.7995 58.3333 38.4293C57.133 37.1239 57.0545 36.7571 57.9519 35.1603C58.7147 33.7902 58.782 32.9918 58.1089 31.5353C57.3573 29.9386 56.7516 29.7228 53.5208 29.7228C50.8846 29.7228 49.6731 30.0141 49.3814 30.888ZM56.4487 32.2582C57.7275 33.7147 56.673 34.8043 53.7452 35.0201C51.8606 35.1603 51.5577 34.869 51.3333 33.1321C51.1089 31.3951 51.3333 31.1793 53.2852 31.1793C54.4968 31.1793 55.9214 31.6864 56.4487 32.2582Z" fill="#33569C"/>
<path d="M69.3942 34.1462C69.5513 37.6957 69.9214 38.7853 71.133 39.5837C72.1089 40.1663 73.0064 40.3065 73.758 39.875C74.5881 39.3679 74.4423 39.0766 72.782 38.494C70.9086 37.7712 70.7516 37.4152 70.7516 33.7147C70.7516 31.3951 70.4487 29.7228 70 29.7228C69.4727 29.7228 69.2484 31.3951 69.3942 34.1462Z" fill="#33569C"/>
<path d="M60.5208 34.4375C59.3878 36.1097 59.3878 36.3902 60.5208 37.987C62.2484 40.6733 64.5817 41.1049 66.5336 39.1521C68.0481 37.5554 68.0481 37.5554 66.6122 38.0625C64.3573 38.8608 63.6057 38.8608 63.3814 38.0625C63.2243 37.6309 64.133 37.0483 65.4118 36.6815C67.891 36.0342 68.3397 34.9446 66.8365 33.4989C65.2548 31.9777 61.867 32.4847 60.5208 34.4375ZM65.0304 33.7902C66.8365 34.4375 66.4663 35.3114 64.2788 35.8184C61.867 36.3902 61.1939 35.8832 62.4727 34.4375C63.5272 33.2076 63.4487 33.2076 65.0304 33.7902Z" fill="#33569C"/>
<path d="M75.4182 33.4989C74.891 34.006 74.5208 35.2359 74.5208 36.3903C74.5208 39.0011 77.0785 40.5978 80.3878 40.0908C82.7211 39.7347 82.7997 39.5837 82.7997 36.1745V32.625H79.5577C77.7516 32.625 75.9455 32.9918 75.4182 33.4989ZM80.4663 35.0848C82.4182 37.4152 79.0304 40.0153 76.6971 37.987C75.6426 37.0484 75.4968 36.4658 76.0913 35.4516C76.9215 33.8549 79.2548 33.6391 80.4663 35.0848Z" fill="#33569C"/>
<path d="M84.3028 34.8043C84.3028 37.6957 87.2419 40.6733 89.4968 40.0907C90.6186 39.7994 91.0785 40.0152 91.0785 40.8136C91.0785 44.007 85.133 45.5282 83.3942 42.7771C82.2724 41.1049 81.2852 40.8891 81.2852 42.3348C81.2852 43.9315 84.3028 45.6793 87.0849 45.6793C91.2243 45.6793 92.5817 43.6402 92.5817 37.6957C92.5817 32.4092 91.3028 30.5967 90.9214 35.3114C90.6971 37.6957 90.4727 38.0625 88.8125 38.0625C87.1634 38.0625 86.9391 37.6957 86.7147 35.3114C86.4118 31.9021 84.3028 31.4598 84.3028 34.8043Z" fill="#33569C"/>
</svg>
