<svg xmlns="http://www.w3.org/2000/svg" viewBox="0 0 36.87 11.97">
  <path d="M16,11.76H13L14.85.2h3Z" fill="#2757a1"/>
  <path d="M10.44.2l-2.87,8L7.23,6.44h0l-1-5.2A1.28,1.28,0,0,0,4.8.2H.06L0,.4A11.32,11.32,0,0,1,3.15,1.72l2.61,10H8.9L13.68.2Z" fill="#2757a1"/>
  <path d="M34.11,11.76h2.76L34.46.2H32a1.4,1.4,0,0,0-1.39.86l-4.49,10.7H29.3L29.93,10h3.82ZM30.8,7.67l1.58-4.32.89,4.32Z" fill="#2757a1"/>
  <path d="M26.4,3,26.83.5A8.61,8.61,0,0,0,24.12,0c-1.49,0-5,.65-5,3.83,0,3,4.16,3,4.16,4.59s-3.74,1.28-5,.3l-.45,2.59a8.47,8.47,0,0,0,3.4.65c2.06,0,5.16-1.06,5.16-4s-4.2-3.29-4.2-4.59S25.11,2.27,26.4,3Z" fill="#2757a1"/>
  <path d="M7.24,6.44l-1-5.2A1.28,1.28,0,0,0,4.8.2H.06L0,.4A11.67,11.67,0,0,1,4.46,2.64,9.06,9.06,0,0,1,7.24,6.44Z" fill="#2757a1"/>
</svg>
